<?xml version="1.0" encoding="UTF-8" standalone="no"?>
<!DOCTYPE svg PUBLIC "-//W3C//DTD SVG 1.1//EN" "http://www.w3.org/Graphics/SVG/1.1/DTD/svg11.dtd">
<svg xmlns="http://www.w3.org/2000/svg" version="1.1" viewBox="0.00 0.00 610.00 610.00">
<g stroke-width="2.00" fill="none" stroke-linecap="butt">
<path stroke="#805934" vector-effect="non-scaling-stroke" d="
  M 360.30 284.89
  C 345.39 292.85 321.94 304.44 304.97 296.80
  Q 295.61 292.59 283.76 286.27
  Q 278.36 283.40 273.18 281.66
  A 4.67 4.42 -33.1 0 0 271.81 281.41
  Q 267.39 281.25 266.00 281.73
  C 261.56 283.26 256.98 286.14 253.04 289.34
  Q 236.89 302.45 234.74 304.04
  Q 232.40 305.77 232.21 307.20
  C 231.67 311.43 235.79 312.68 239.26 312.72
  C 247.42 312.83 255.95 309.09 262.82 304.74
  C 264.88 303.45 266.80 302.79 268.70 304.31
  Q 298.24 327.91 312.77 339.42
  A 1.77 1.75 -36.2 0 0 314.51 339.68
  L 356.20 323.04
  A 1.19 1.17 11.8 0 0 356.62 322.77
  Q 357.62 321.81 358.18 319.64
  Q 362.61 302.76 360.69 285.10
  A 0.27 0.27 0.0 0 0 360.30 284.89"
/>
<path stroke="#805934" vector-effect="non-scaling-stroke" d="
  M 246.03 285.12
  C 242.49 285.33 237.75 288.03 233.95 289.93
  Q 230.76 291.52 221.70 295.35
  C 212.34 299.30 203.74 300.34 194.65 298.38
  Q 176.60 294.48 158.42 286.36
  A 0.39 0.39 0.0 0 0 157.87 286.69
  Q 156.59 304.83 161.22 321.98
  A 2.35 2.34 3.6 0 0 162.62 323.56
  L 186.97 333.22
  A 1.43 1.43 0.0 0 0 188.65 332.75
  Q 192.31 327.93 195.76 326.82
  C 202.09 324.79 208.04 327.64 210.67 333.44
  A 0.64 0.64 0.0 0 0 211.55 333.74
  Q 219.64 329.41 225.78 336.27
  Q 228.29 339.07 228.40 342.76
  A 0.69 0.68 -2.4 0 0 229.13 343.42
  C 235.76 342.96 241.84 348.46 240.81 355.33
  A 0.51 0.51 0.0 0 0 241.32 355.92
  Q 246.02 355.89 248.52 357.99
  Q 260.75 368.26 276.01 379.38
  A 5.87 5.86 44.4 0 0 282.99 379.31
  L 283.18 379.16
  A 3.54 3.54 0.0 0 0 283.25 373.56
  Q 272.61 365.07 262.78 357.72
  C 259.44 355.22 258.25 353.54 261.59 350.17
  C 262.97 348.79 265.36 349.96 266.52 350.84
  Q 287.79 366.81 291.94 370.29
  A 4.70 4.69 -46.9 0 0 298.20 370.08
  L 298.61 369.69
  A 4.05 4.05 0.0 0 0 298.35 363.54
  L 273.20 343.86
  A 3.67 3.67 0.0 0 1 272.50 338.80
  L 272.65 338.60
  A 3.48 3.47 -54.0 0 1 277.64 337.81
  Q 296.32 352.30 302.49 357.02
  Q 304.71 358.72 306.51 359.39
  A 1.78 1.76 -43.7 0 0 307.64 359.41
  C 312.43 357.87 314.25 353.70 311.96 349.35
  Q 311.13 347.78 308.17 345.41
  Q 291.39 332.03 266.17 312.11
  A 0.77 0.76 -40.1 0 0 265.32 312.04
  C 255.14 317.72 238.98 324.62 228.61 316.20
  C 224.09 312.53 222.83 305.03 227.60 300.84
  Q 235.48 293.91 246.20 285.57
  A 0.25 0.25 0.0 0 0 246.03 285.12"
/>
<path stroke="#805934" vector-effect="non-scaling-stroke" d="
  M 202.7495 334.1511
  A 8.11 4.99 -50.4 0 0 193.7351 337.2193
  A 8.11 4.99 -50.4 0 0 192.4105 346.6489
  A 8.11 4.99 -50.4 0 0 201.4249 343.5807
  A 8.11 4.99 -50.4 0 0 202.7495 334.1511"
/>
<path stroke="#805934" vector-effect="non-scaling-stroke" d="
  M 219.8876 347.4350
  A 4.60 4.60 0.0 0 0 219.5358 340.9391
  L 219.3125 340.7388
  A 4.60 4.60 0.0 0 0 212.8166 341.0906
  L 202.7724 352.2850
  A 4.60 4.60 0.0 0 0 203.1242 358.7809
  L 203.3475 358.9812
  A 4.60 4.60 0.0 0 0 209.8434 358.6294
  L 219.8876 347.4350"
/>
<path stroke="#805934" vector-effect="non-scaling-stroke" d="
  M 215.22 370.78
  C 217.53 373.06 220.80 372.50 223.11 370.34
  Q 229.04 364.79 233.07 357.88
  C 234.26 355.85 234.55 353.97 233.01 352.19
  C 230.44 349.23 227.01 350.45 224.61 353.12
  Q 220.94 357.19 216.24 362.36
  C 213.66 365.21 212.36 367.96 215.22 370.78"
/>
<path stroke="#805934" vector-effect="non-scaling-stroke" d="
  M 245.7926 371.7469
  A 5.08 5.08 0.0 0 0 245.2540 364.5829
  L 244.9052 364.2830
  A 5.08 5.08 0.0 0 0 237.7413 364.8216
  L 230.0074 373.8131
  A 5.08 5.08 0.0 0 0 230.5460 380.9771
  L 230.8948 381.2770
  A 5.08 5.08 0.0 0 0 238.0587 380.7384
  L 245.7926 371.7469"
/>
<path stroke="#805934" vector-effect="non-scaling-stroke" d="
  M 249.10 379.47
  A 0.72 0.72 0.0 0 0 249.18 380.53
  L 256.52 386.28
  A 5.41 5.41 0.0 0 0 263.46 386.05
  L 264.30 385.30
  A 3.28 3.27 43.1 0 0 264.13 380.29
  L 253.84 372.24
  A 0.63 0.63 0.0 0 0 252.85 372.57
  Q 251.79 376.55 249.10 379.47"
/>
</g>
<path fill="#00285e" d="
  M 263.08 179.42
  Q 284.79 180.19 303.94 187.62
  C 345.34 203.67 373.39 240.96 377.19 285.24
  Q 380.72 326.51 357.63 360.38
  Q 347.82 374.77 334.47 385.97
  C 311.79 405.01 284.55 413.71 254.76 412.65
  C 224.96 411.59 198.42 400.97 177.15 380.36
  Q 164.63 368.24 155.87 353.19
  Q 135.25 317.76 141.71 276.84
  C 148.66 232.95 179.29 197.75 221.73 184.69
  Q 241.36 178.65 263.08 179.42
  Z
  M 251.62 198.49
  A 0.26 0.26 0.0 0 0 251.28 198.24
  C 232.75 203.94 221.46 228.29 215.85 245.30
  A 0.46 0.46 0.0 0 0 216.23 245.90
  Q 233.75 248.05 251.02 248.53
  A 0.76 0.75 0.6 0 0 251.79 247.78
  L 251.62 198.49
  Z
  M 265.27 198.93
  L 265.27 247.84
  A 0.75 0.74 -0.8 0 0 266.04 248.58
  Q 283.17 248.04 300.55 245.85
  A 0.46 0.45 76.9 0 0 300.92 245.25
  C 295.30 228.39 284.01 204.27 265.60 198.68
  A 0.26 0.26 0.0 0 0 265.27 198.93
  Z
  M 222.26 203.05
  A 0.45 0.45 0.0 0 0 221.75 202.35
  Q 193.88 213.17 176.50 236.02
  A 0.28 0.28 0.0 0 0 176.62 236.44
  Q 188.02 240.71 200.88 243.71
  A 0.97 0.97 0.0 0 0 202.03 243.03
  Q 208.28 220.43 222.26 203.05
  Z
  M 295.55 203.25
  Q 309.33 220.42 315.47 242.73
  A 0.95 0.95 0.0 0 0 316.60 243.40
  Q 329.30 240.46 340.55 236.25
  A 0.27 0.27 0.0 0 0 340.67 235.84
  Q 323.55 213.27 296.06 202.56
  A 0.44 0.44 0.0 0 0 295.55 203.25
  Z
  M 194.34 279.96
  Q 195.02 268.48 197.53 259.04
  A 0.77 0.76 -77.0 0 0 196.95 258.10
  C 188.06 256.30 177.14 253.06 168.39 249.44
  A 0.86 0.85 23.4 0 0 167.29 249.87
  Q 161.70 261.86 158.82 275.80
  A 0.71 0.71 0.0 0 0 159.21 276.59
  Q 171.22 282.21 184.56 286.68
  C 193.26 289.60 202.96 291.94 211.79 289.59
  C 222.09 286.85 232.99 281.19 240.77 278.05
  Q 247.59 275.30 254.42 277.76
  A 1.16 1.15 -49.1 0 0 255.37 277.69
  Q 259.88 275.25 260.70 274.93
  Q 271.30 270.84 279.75 275.04
  Q 295.85 283.05 305.17 287.60
  Q 311.23 290.57 315.51 290.74
  C 319.91 290.92 326.88 289.42 331.72 287.82
  Q 345.48 283.26 358.13 275.80
  A 0.94 0.93 -21.9 0 0 358.57 274.79
  Q 355.83 262.53 349.96 250.19
  A 1.10 1.09 -22.9 0 0 348.58 249.63
  Q 335.12 254.76 320.23 258.18
  A 0.43 0.42 79.0 0 0 319.91 258.66
  L 323.54 280.13
  A 0.56 0.56 0.0 0 1 322.99 280.78
  L 309.89 280.78
  A 1.42 1.41 85.2 0 1 308.50 279.60
  L 305.31 260.72
  A 0.84 0.83 -9.2 0 0 304.36 260.04
  Q 259.23 266.60 213.04 260.53
  A 1.41 1.40 -81.8 0 0 211.47 261.71
  L 208.64 280.14
  A 0.76 0.76 0.0 0 1 207.89 280.78
  L 195.11 280.78
  A 0.77 0.77 0.0 0 1 194.34 279.96
  Z
  M 360.30 284.89
  C 345.39 292.85 321.94 304.44 304.97 296.80
  Q 295.61 292.59 283.76 286.27
  Q 278.36 283.40 273.18 281.66
  A 4.67 4.42 -33.1 0 0 271.81 281.41
  Q 267.39 281.25 266.00 281.73
  C 261.56 283.26 256.98 286.14 253.04 289.34
  Q 236.89 302.45 234.74 304.04
  Q 232.40 305.77 232.21 307.20
  C 231.67 311.43 235.79 312.68 239.26 312.72
  C 247.42 312.83 255.95 309.09 262.82 304.74
  C 264.88 303.45 266.80 302.79 268.70 304.31
  Q 298.24 327.91 312.77 339.42
  A 1.77 1.75 -36.2 0 0 314.51 339.68
  L 356.20 323.04
  A 1.19 1.17 11.8 0 0 356.62 322.77
  Q 357.62 321.81 358.18 319.64
  Q 362.61 302.76 360.69 285.10
  A 0.27 0.27 0.0 0 0 360.30 284.89
  Z
  M 246.03 285.12
  C 242.49 285.33 237.75 288.03 233.95 289.93
  Q 230.76 291.52 221.70 295.35
  C 212.34 299.30 203.74 300.34 194.65 298.38
  Q 176.60 294.48 158.42 286.36
  A 0.39 0.39 0.0 0 0 157.87 286.69
  Q 156.59 304.83 161.22 321.98
  A 2.35 2.34 3.6 0 0 162.62 323.56
  L 186.97 333.22
  A 1.43 1.43 0.0 0 0 188.65 332.75
  Q 192.31 327.93 195.76 326.82
  C 202.09 324.79 208.04 327.64 210.67 333.44
  A 0.64 0.64 0.0 0 0 211.55 333.74
  Q 219.64 329.41 225.78 336.27
  Q 228.29 339.07 228.40 342.76
  A 0.69 0.68 -2.4 0 0 229.13 343.42
  C 235.76 342.96 241.84 348.46 240.81 355.33
  A 0.51 0.51 0.0 0 0 241.32 355.92
  Q 246.02 355.89 248.52 357.99
  Q 260.75 368.26 276.01 379.38
  A 5.87 5.86 44.4 0 0 282.99 379.31
  L 283.18 379.16
  A 3.54 3.54 0.0 0 0 283.25 373.56
  Q 272.61 365.07 262.78 357.72
  C 259.44 355.22 258.25 353.54 261.59 350.17
  C 262.97 348.79 265.36 349.96 266.52 350.84
  Q 287.79 366.81 291.94 370.29
  A 4.70 4.69 -46.9 0 0 298.20 370.08
  L 298.61 369.69
  A 4.05 4.05 0.0 0 0 298.35 363.54
  L 273.20 343.86
  A 3.67 3.67 0.0 0 1 272.50 338.80
  L 272.65 338.60
  A 3.48 3.47 -54.0 0 1 277.64 337.81
  Q 296.32 352.30 302.49 357.02
  Q 304.71 358.72 306.51 359.39
  A 1.78 1.76 -43.7 0 0 307.64 359.41
  C 312.43 357.87 314.25 353.70 311.96 349.35
  Q 311.13 347.78 308.17 345.41
  Q 291.39 332.03 266.17 312.11
  A 0.77 0.76 -40.1 0 0 265.32 312.04
  C 255.14 317.72 238.98 324.62 228.61 316.20
  C 224.09 312.53 222.83 305.03 227.60 300.84
  Q 235.48 293.91 246.20 285.57
  A 0.25 0.25 0.0 0 0 246.03 285.12
  Z
  M 202.7495 334.1511
  A 8.11 4.99 -50.4 0 0 193.7351 337.2193
  A 8.11 4.99 -50.4 0 0 192.4105 346.6489
  A 8.11 4.99 -50.4 0 0 201.4249 343.5807
  A 8.11 4.99 -50.4 0 0 202.7495 334.1511
  Z
  M 165.95 333.97
  A 0.57 0.57 0.0 0 0 165.22 334.74
  C 179.05 364.90 205.81 388.92 238.85 394.55
  Q 257.03 397.64 274.58 394.85
  C 280.02 393.98 285.05 392.33 289.02 391.51
  Q 294.36 390.41 299.56 388.06
  C 323.54 377.21 341.92 358.41 352.87 334.41
  A 0.43 0.43 0.0 0 0 352.32 333.83
  L 319.79 346.81
  A 0.55 0.55 0.0 0 0 319.47 347.49
  L 320.32 350.11
  A 3.03 2.85 35.1 0 1 320.45 350.74
  Q 321.61 362.44 311.23 366.42
  C 310.35 366.75 309.06 366.71 308.18 367.23
  A 1.30 1.29 -9.0 0 0 307.55 368.09
  Q 305.67 376.61 297.22 378.98
  C 296.03 379.31 294.50 379.19 293.34 379.51
  A 1.20 1.19 4.2 0 0 292.56 380.18
  Q 287.97 390.22 276.77 388.36
  C 275.75 388.19 274.01 387.36 273.23 387.22
  A 0.93 0.92 -64.5 0 0 272.35 387.54
  L 269.47 391.02
  A 4.20 4.18 -87.4 0 1 268.65 391.77
  C 260.01 397.80 251.94 393.40 244.87 387.74
  A 1.61 1.60 -43.3 0 0 242.94 387.69
  Q 235.91 392.71 228.70 389.21
  Q 223.41 386.64 222.04 381.15
  A 0.96 0.95 81.8 0 0 221.08 380.43
  Q 208.51 380.86 206.38 369.02
  A 0.81 0.80 89.9 0 0 205.74 368.37
  Q 195.28 366.46 194.53 356.25
  A 0.80 0.80 0.0 0 0 193.87 355.51
  C 186.74 354.26 183.77 348.36 183.96 341.55
  A 0.62 0.62 0.0 0 0 183.57 340.96
  L 165.95 333.97
  Z
  M 219.8876 347.4350
  A 4.60 4.60 0.0 0 0 219.5358 340.9391
  L 219.3125 340.7388
  A 4.60 4.60 0.0 0 0 212.8166 341.0906
  L 202.7724 352.2850
  A 4.60 4.60 0.0 0 0 203.1242 358.7809
  L 203.3475 358.9812
  A 4.60 4.60 0.0 0 0 209.8434 358.6294
  L 219.8876 347.4350
  Z
  M 215.22 370.78
  C 217.53 373.06 220.80 372.50 223.11 370.34
  Q 229.04 364.79 233.07 357.88
  C 234.26 355.85 234.55 353.97 233.01 352.19
  C 230.44 349.23 227.01 350.45 224.61 353.12
  Q 220.94 357.19 216.24 362.36
  C 213.66 365.21 212.36 367.96 215.22 370.78
  Z
  M 245.7926 371.7469
  A 5.08 5.08 0.0 0 0 245.2540 364.5829
  L 244.9052 364.2830
  A 5.08 5.08 0.0 0 0 237.7413 364.8216
  L 230.0074 373.8131
  A 5.08 5.08 0.0 0 0 230.5460 380.9771
  L 230.8948 381.2770
  A 5.08 5.08 0.0 0 0 238.0587 380.7384
  L 245.7926 371.7469
  Z
  M 249.10 379.47
  A 0.72 0.72 0.0 0 0 249.18 380.53
  L 256.52 386.28
  A 5.41 5.41 0.0 0 0 263.46 386.05
  L 264.30 385.30
  A 3.28 3.27 43.1 0 0 264.13 380.29
  L 253.84 372.24
  A 0.63 0.63 0.0 0 0 252.85 372.57
  Q 251.79 376.55 249.10 379.47
  Z"
/>
<path fill="#00285e" d="
  M 469.65 213.69
  L 469.65 300.06
  A 0.40 0.40 0.0 0 1 469.25 300.46
  L 444.44 300.46
  A 0.40 0.40 0.0 0 1 444.04 300.06
  L 444.04 213.74
  A 0.40 0.40 0.0 0 0 443.64 213.34
  L 410.61 213.34
  A 0.40 0.40 0.0 0 1 410.21 212.94
  L 410.21 194.77
  A 0.40 0.40 0.0 0 1 410.61 194.37
  L 502.46 194.37
  A 0.40 0.40 0.0 0 1 502.86 194.77
  L 502.86 212.89
  A 0.40 0.40 0.0 0 1 502.46 213.29
  L 470.05 213.29
  A 0.40 0.40 0.0 0 0 469.65 213.69
  Z"
/>
<path fill="#00285e" d="
  M 536.16 232.84
  A 0.39 0.39 0.0 0 0 536.90 232.99
  C 542.85 219.03 554.79 214.84 569.20 217.30
  A 0.90 0.90 0.0 0 1 569.95 218.23
  L 568.84 239.84
  A 0.66 0.65 -80.6 0 1 568.01 240.44
  Q 566.19 239.91 560.53 239.66
  C 551.36 239.26 541.67 241.85 538.55 251.08
  Q 536.83 256.17 536.85 263.16
  Q 536.93 295.70 536.92 299.91
  A 0.62 0.62 0.0 0 1 536.30 300.53
  L 512.39 300.53
  A 0.50 0.49 90.0 0 1 511.90 300.03
  L 511.90 218.54
  A 0.44 0.44 0.0 0 1 512.34 218.10
  L 535.55 218.10
  A 0.61 0.60 -0.0 0 1 536.16 218.70
  L 536.16 232.84
  Z"
/>
<path fill="#00285e" d="
  M 610.00 217.11
  L 610.00 234.57
  C 605.45 237.13 604.82 240.18 603.38 244.56
  A 0.58 0.57 15.1 0 1 602.71 244.94
  Q 592.52 242.74 581.47 242.56
  A 0.43 0.43 0.0 0 1 581.05 242.06
  C 583.58 226.55 595.05 218.98 610.00 217.11
  Z"
/>
<path fill="#00285e" d="
  M 610.00 251.65
  L 610.00 267.04
  Q 603.51 269.71 603.62 276.23
  Q 603.73 282.87 610.00 284.78
  L 610.00 302.41
  Q 606.00 302.57 602.01 302.22
  C 590.76 301.23 580.71 294.47 578.81 282.80
  C 575.49 262.45 593.35 253.79 610.00 251.65
  Z"
/>
<path fill="#ff8a0a" d="
  M 360.30 284.89
  A 0.27 0.27 0.0 0 1 360.69 285.10
  Q 362.61 302.76 358.18 319.64
  Q 357.62 321.81 356.62 322.77
  A 1.19 1.17 11.8 0 1 356.20 323.04
  L 314.51 339.68
  A 1.77 1.75 -36.2 0 1 312.77 339.42
  Q 298.24 327.91 268.70 304.31
  C 266.80 302.79 264.88 303.45 262.82 304.74
  C 255.95 309.09 247.42 312.83 239.26 312.72
  C 235.79 312.68 231.67 311.43 232.21 307.20
  Q 232.40 305.77 234.74 304.04
  Q 236.89 302.45 253.04 289.34
  C 256.98 286.14 261.56 283.26 266.00 281.73
  Q 267.39 281.25 271.81 281.41
  A 4.67 4.42 -33.1 0 1 273.18 281.66
  Q 278.36 283.40 283.76 286.27
  Q 295.61 292.59 304.97 296.80
  C 321.94 304.44 345.39 292.85 360.30 284.89
  Z"
/>
<path fill="#ff8a0a" d="
  M 246.03 285.12
  A 0.25 0.25 0.0 0 1 246.20 285.57
  Q 235.48 293.91 227.60 300.84
  C 222.83 305.03 224.09 312.53 228.61 316.20
  C 238.98 324.62 255.14 317.72 265.32 312.04
  A 0.77 0.76 -40.1 0 1 266.17 312.11
  Q 291.39 332.03 308.17 345.41
  Q 311.13 347.78 311.96 349.35
  C 314.25 353.70 312.43 357.87 307.64 359.41
  A 1.78 1.76 -43.7 0 1 306.51 359.39
  Q 304.71 358.72 302.49 357.02
  Q 296.32 352.30 277.64 337.81
  A 3.48 3.47 -54.0 0 0 272.65 338.60
  L 272.50 338.80
  A 3.67 3.67 0.0 0 0 273.20 343.86
  L 298.35 363.54
  A 4.05 4.05 0.0 0 1 298.61 369.69
  L 298.20 370.08
  A 4.70 4.69 -46.9 0 1 291.94 370.29
  Q 287.79 366.81 266.52 350.84
  C 265.36 349.96 262.97 348.79 261.59 350.17
  C 258.25 353.54 259.44 355.22 262.78 357.72
  Q 272.61 365.07 283.25 373.56
  A 3.54 3.54 0.0 0 1 283.18 379.16
  L 282.99 379.31
  A 5.87 5.86 44.4 0 1 276.01 379.38
  Q 260.75 368.26 248.52 357.99
  Q 246.02 355.89 241.32 355.92
  A 0.51 0.51 0.0 0 1 240.81 355.33
  C 241.84 348.46 235.76 342.96 229.13 343.42
  A 0.69 0.68 -2.4 0 1 228.40 342.76
  Q 228.29 339.07 225.78 336.27
  Q 219.64 329.41 211.55 333.74
  A 0.64 0.64 0.0 0 1 210.67 333.44
  C 208.04 327.64 202.09 324.79 195.76 326.82
  Q 192.31 327.93 188.65 332.75
  A 1.43 1.43 0.0 0 1 186.97 333.22
  L 162.62 323.56
  A 2.35 2.34 3.6 0 1 161.22 321.98
  Q 156.59 304.83 157.87 286.69
  A 0.39 0.39 0.0 0 1 158.42 286.36
  Q 176.60 294.48 194.65 298.38
  C 203.74 300.34 212.34 299.30 221.70 295.35
  Q 230.76 291.52 233.95 289.93
  C 237.75 288.03 242.49 285.33 246.03 285.12
  Z"
/>
<path fill="#00285e" d="
  M 465.55 358.60
  A 0.29 0.28 -46.2 0 0 465.56 359.16
  Q 483.66 362.01 483.97 379.97
  C 484.29 398.69 469.32 406.04 452.75 406.14
  Q 435.93 406.25 409.96 406.16
  A 0.37 0.36 -90.0 0 1 409.60 405.79
  L 409.60 317.85
  A 0.63 0.62 -90.0 0 1 410.22 317.22
  Q 432.65 317.18 452.24 317.24
  C 465.73 317.28 480.72 322.56 481.23 338.26
  C 481.57 348.66 475.82 356.51 465.55 358.60
  Z
  M 430.12 331.83
  L 430.08 353.25
  A 0.27 0.27 0.0 0 0 430.35 353.52
  L 448.65 353.56
  A 12.11 10.07 0.1 0 0 460.78 343.51
  L 460.78 341.69
  A 12.11 10.07 0.1 0 0 448.69 331.60
  L 430.39 331.56
  A 0.27 0.27 0.0 0 0 430.12 331.83
  Z
  M 430.11 367.63
  L 430.11 390.47
  A 0.34 0.34 0.0 0 0 430.45 390.81
  L 449.92 390.81
  A 13.37 10.89 -0.0 0 0 463.29 379.92
  L 463.29 378.18
  A 13.37 10.89 0.0 0 0 449.92 367.29
  L 430.45 367.29
  A 0.34 0.34 0.0 0 0 430.11 367.63
  Z"
/>
<ellipse fill="#ff8a0a" cx="0.00" cy="0.00" transform="translate(197.58,340.40) rotate(-50.4)" rx="8.11" ry="4.99"/>
<path fill="#00285e" d="
  M 540.80 397.33
  A 0.31 0.31 0.0 0 0 540.21 397.22
  C 537.26 402.84 530.44 406.45 524.39 407.13
  C 514.81 408.19 503.82 406.57 498.41 397.44
  Q 496.18 393.67 495.99 388.07
  C 495.58 376.35 504.39 369.27 515.33 366.91
  Q 526.52 364.49 538.33 364.89
  A 1.25 1.25 0.0 0 0 539.62 363.65
  C 539.65 359.96 538.93 354.53 535.11 352.68
  Q 530.35 350.37 524.24 351.54
  Q 517.68 352.80 516.45 359.73
  A 0.79 0.79 0.0 0 1 515.48 360.37
  Q 507.47 358.42 499.05 358.31
  A 0.57 0.57 0.0 0 1 498.50 357.63
  C 501.92 340.47 518.11 337.16 533.26 338.17
  C 548.36 339.18 558.37 345.84 558.69 361.76
  Q 558.70 362.18 558.75 396.79
  C 558.75 400.03 559.28 402.69 559.47 405.63
  A 0.53 0.53 0.0 0 1 558.94 406.19
  L 542.08 406.19
  A 0.48 0.48 0.0 0 1 541.60 405.75
  L 540.80 397.33
  Z
  M 539.13 376.20
  Q 528.69 375.94 522.51 377.98
  Q 515.97 380.14 516.27 386.63
  C 516.68 395.29 527.99 394.32 533.13 391.38
  C 538.67 388.21 540.04 383.11 539.73 376.78
  A 0.61 0.60 -0.5 0 0 539.13 376.20
  Z"
/>
<path fill="#00285e" d="
  M 610.00 338.14
  L 610.00 357.20
  C 603.20 358.02 597.82 360.60 595.67 367.68
  C 595.15 369.40 594.64 372.13 594.63 374.15
  Q 594.62 378.26 594.63 405.59
  A 0.58 0.58 0.0 0 1 594.05 406.18
  L 574.69 406.18
  A 0.35 0.35 0.0 0 1 574.34 405.83
  L 574.34 339.85
  A 0.55 0.54 -0.0 0 1 574.89 339.31
  L 593.83 339.31
  A 0.50 0.49 0.0 0 1 594.33 339.80
  L 594.33 350.81
  A 0.32 0.32 0.0 0 0 594.95 350.93
  Q 598.95 340.40 610.00 338.14
  Z"
/>
<rect fill="#ff8a0a" x="-4.75" y="-12.12" transform="translate(211.33,349.86) rotate(41.9)" width="9.50" height="24.24" rx="4.60"/>
<path fill="#ff8a0a" d="
  M 223.11 370.34
  C 220.80 372.50 217.53 373.06 215.22 370.78
  C 212.36 367.96 213.66 365.21 216.24 362.36
  Q 220.94 357.19 224.61 353.12
  C 227.01 350.45 230.44 349.23 233.01 352.19
  C 234.55 353.97 234.26 355.85 233.07 357.88
  Q 229.04 364.79 223.11 370.34
  Z"
/>
<rect fill="#ff8a0a" x="-5.31" y="-11.01" transform="translate(237.90,372.78) rotate(40.7)" width="10.62" height="22.02" rx="5.08"/>
<path fill="#ff8a0a" d="
  M 249.10 379.47
  Q 251.79 376.55 252.85 372.57
  A 0.63 0.63 0.0 0 1 253.84 372.24
  L 264.13 380.29
  A 3.28 3.27 43.1 0 1 264.30 385.30
  L 263.46 386.05
  A 5.41 5.41 0.0 0 1 256.52 386.28
  L 249.18 380.53
  A 0.72 0.72 0.0 0 1 249.10 379.47
  Z"
/>
</svg>
