<?xml version="1.0" encoding="UTF-8" standalone="no"?>
<!DOCTYPE svg PUBLIC "-//W3C//DTD SVG 1.1//EN" "http://www.w3.org/Graphics/SVG/1.1/DTD/svg11.dtd">
<svg xmlns="http://www.w3.org/2000/svg" version="1.1" viewBox="0.00 0.00 900.00 610.00">
<g stroke-width="2.00" fill="none" stroke-linecap="butt">
<path stroke="#805934" vector-effect="non-scaling-stroke" d="
  M 360.29 284.89
  Q 344.97 293.10 331.87 297.11
  Q 325.98 298.91 316.78 299.18
  C 311.12 299.34 305.56 297.36 300.63 294.87
  Q 279.83 284.32 277.33 283.15
  C 271.94 280.61 267.05 280.67 261.63 283.68
  Q 256.59 286.48 255.43 287.43
  Q 238.22 301.36 234.74 304.03
  C 232.27 305.91 230.86 308.71 233.44 310.93
  C 237.52 314.45 246.74 312.20 251.43 310.41
  Q 257.77 307.99 262.91 304.69
  C 264.70 303.55 266.83 302.82 268.44 304.11
  Q 299.04 328.55 312.77 339.42
  A 1.76 1.74 -36.4 0 0 314.51 339.67
  L 356.04 323.11
  A 2.85 2.83 -3.1 0 0 357.72 321.25
  Q 362.69 303.73 360.70 285.11
  A 0.28 0.28 0.0 0 0 360.29 284.89"
/>
<path stroke="#805934" vector-effect="non-scaling-stroke" d="
  M 246.03 285.12
  C 242.49 285.33 237.75 288.03 233.95 289.93
  Q 230.76 291.52 221.70 295.35
  C 212.34 299.30 203.74 300.34 194.65 298.38
  Q 176.60 294.48 158.42 286.36
  A 0.39 0.39 0.0 0 0 157.87 286.69
  Q 156.59 304.83 161.22 321.98
  A 2.35 2.34 3.6 0 0 162.62 323.56
  L 186.97 333.22
  A 1.43 1.43 0.0 0 0 188.65 332.75
  Q 192.31 327.93 195.76 326.82
  C 202.09 324.79 208.04 327.64 210.67 333.44
  A 0.64 0.64 0.0 0 0 211.55 333.74
  Q 219.64 329.41 225.78 336.27
  Q 228.29 339.07 228.40 342.76
  A 0.69 0.68 -2.4 0 0 229.13 343.42
  C 235.76 342.96 241.84 348.46 240.81 355.33
  A 0.51 0.51 0.0 0 0 241.32 355.92
  Q 246.02 355.89 248.52 357.99
  Q 260.75 368.26 276.01 379.38
  A 5.87 5.86 44.4 0 0 282.99 379.31
  L 283.18 379.16
  A 3.54 3.54 0.0 0 0 283.25 373.57
  Q 271.30 364.03 262.77 357.73
  C 259.30 355.17 258.42 353.71 261.55 350.22
  C 262.82 348.81 265.22 349.87 266.37 350.73
  Q 286.92 366.13 291.94 370.30
  A 4.70 4.70 0.0 0 0 298.20 370.07
  L 298.62 369.69
  A 4.02 4.02 0.0 0 0 298.37 363.57
  L 272.99 343.68
  A 3.40 3.39 38.1 0 1 272.41 338.91
  L 272.72 338.51
  A 3.58 3.57 -52.0 0 1 277.73 337.89
  Q 295.17 351.42 302.63 357.12
  Q 304.74 358.74 306.52 359.39
  A 1.76 1.74 -43.8 0 0 307.67 359.41
  C 313.05 357.60 314.20 353.22 311.44 348.48
  Q 310.92 347.59 306.51 344.08
  Q 280.25 323.20 266.16 312.11
  A 0.76 0.75 49.4 0 0 265.32 312.04
  C 255.16 317.72 238.98 324.62 228.61 316.20
  C 224.09 312.53 222.83 305.03 227.60 300.84
  Q 235.48 293.91 246.20 285.57
  A 0.25 0.25 0.0 0 0 246.03 285.12"
/>
<path stroke="#805934" vector-effect="non-scaling-stroke" d="
  M 202.7495 334.1511
  A 8.11 4.99 -50.4 0 0 193.7351 337.2193
  A 8.11 4.99 -50.4 0 0 192.4105 346.6489
  A 8.11 4.99 -50.4 0 0 201.4249 343.5807
  A 8.11 4.99 -50.4 0 0 202.7495 334.1511"
/>
<path stroke="#805934" vector-effect="non-scaling-stroke" d="
  M 219.8876 347.4350
  A 4.60 4.60 0.0 0 0 219.5358 340.9391
  L 219.3125 340.7388
  A 4.60 4.60 0.0 0 0 212.8166 341.0906
  L 202.7724 352.2850
  A 4.60 4.60 0.0 0 0 203.1242 358.7809
  L 203.3475 358.9812
  A 4.60 4.60 0.0 0 0 209.8434 358.6294
  L 219.8876 347.4350"
/>
<path stroke="#805934" vector-effect="non-scaling-stroke" d="
  M 215.22 370.78
  C 217.53 373.06 220.80 372.50 223.11 370.34
  Q 229.04 364.79 233.07 357.88
  C 234.26 355.85 234.55 353.97 233.01 352.19
  C 230.44 349.23 227.01 350.45 224.61 353.12
  Q 220.94 357.19 216.24 362.36
  C 213.66 365.21 212.36 367.96 215.22 370.78"
/>
<path stroke="#805934" vector-effect="non-scaling-stroke" d="
  M 245.7926 371.7469
  A 5.08 5.08 0.0 0 0 245.2540 364.5829
  L 244.9052 364.2830
  A 5.08 5.08 0.0 0 0 237.7413 364.8216
  L 230.0074 373.8131
  A 5.08 5.08 0.0 0 0 230.5460 380.9771
  L 230.8948 381.2770
  A 5.08 5.08 0.0 0 0 238.0587 380.7384
  L 245.7926 371.7469"
/>
<path stroke="#805934" vector-effect="non-scaling-stroke" d="
  M 249.10 379.47
  A 0.72 0.72 0.0 0 0 249.18 380.53
  L 256.52 386.28
  A 5.41 5.40 -46.8 0 0 263.46 386.05
  L 264.29 385.30
  A 3.26 3.26 0.0 0 0 264.13 380.30
  L 253.85 372.24
  A 0.64 0.63 26.6 0 0 252.85 372.57
  Q 251.79 376.54 249.10 379.47"
/>
</g>
<path fill="#00285e" d="
  M 263.26 179.42
  C 284.09 180.20 303.72 185.71 321.21 195.97
  C 363.87 220.98 385.19 270.67 375.35 318.98
  C 369.90 345.75 354.20 369.96 332.97 387.21
  C 310.50 405.47 283.68 413.74 254.56 412.65
  C 225.44 411.56 199.31 401.32 178.26 381.43
  C 158.38 362.65 144.52 337.34 141.08 310.24
  C 134.87 261.33 159.84 213.36 204.24 191.60
  C 222.45 182.67 242.43 178.64 263.26 179.42
  Z
  M 251.62 198.65
  A 0.39 0.39 0.0 0 0 251.11 198.28
  Q 243.77 200.52 238.31 205.98
  C 227.46 216.81 220.84 230.60 215.85 245.22
  A 0.52 0.52 0.0 0 0 216.28 245.90
  Q 233.58 248.03 251.04 248.53
  A 0.73 0.73 0.0 0 0 251.79 247.80
  L 251.62 198.65
  Z
  M 265.27 199.09
  L 265.27 247.86
  A 0.72 0.72 0.0 0 0 266.02 248.58
  Q 283.34 248.02 300.50 245.85
  A 0.51 0.51 0.0 0 0 300.92 245.17
  C 295.92 230.68 289.30 217.02 278.50 206.32
  Q 273.06 200.92 265.77 198.72
  A 0.39 0.39 0.0 0 0 265.27 199.09
  Z
  M 222.21 203.14
  A 0.48 0.48 0.0 0 0 221.66 202.39
  Q 193.90 213.17 176.50 236.02
  A 0.27 0.27 0.0 0 0 176.62 236.44
  Q 188.52 240.85 201.06 243.75
  A 0.74 0.73 -75.6 0 0 201.93 243.23
  Q 208.33 220.33 222.21 203.14
  Z
  M 295.60 203.34
  Q 309.28 220.32 315.57 242.93
  A 0.73 0.72 75.6 0 0 316.42 243.44
  Q 328.80 240.59 340.55 236.26
  A 0.27 0.27 0.0 0 0 340.67 235.84
  Q 323.53 213.27 296.14 202.60
  A 0.48 0.47 -8.7 0 0 295.60 203.34
  Z
  M 194.34 279.96
  Q 195.02 268.48 197.53 259.04
  A 0.77 0.76 -77.0 0 0 196.95 258.10
  C 188.06 256.30 177.14 253.06 168.39 249.44
  A 0.86 0.85 23.4 0 0 167.29 249.87
  Q 161.70 261.86 158.82 275.80
  A 0.71 0.71 0.0 0 0 159.21 276.59
  Q 171.23 282.21 184.56 286.68
  C 194.50 290.02 204.40 292.17 214.78 288.80
  C 224.27 285.72 234.09 280.72 240.59 278.12
  Q 247.73 275.26 254.42 277.76
  A 1.14 1.12 40.2 0 0 255.36 277.69
  Q 259.80 275.29 260.70 274.94
  Q 271.30 270.83 279.73 275.02
  Q 299.75 284.99 305.16 287.60
  Q 311.40 290.61 315.51 290.74
  C 320.04 290.88 326.89 289.43 331.72 287.82
  Q 345.45 283.26 358.19 275.75
  A 0.82 0.82 0.0 0 0 358.58 274.86
  Q 355.72 262.11 349.88 250.06
  A 0.96 0.95 -23.3 0 0 348.69 249.59
  Q 335.09 254.77 320.34 258.15
  A 0.54 0.54 0.0 0 0 319.93 258.77
  L 323.55 280.12
  A 0.57 0.57 0.0 0 1 322.99 280.78
  L 309.88 280.78
  A 1.41 1.40 85.1 0 1 308.50 279.61
  L 305.29 260.66
  A 0.82 0.81 80.6 0 0 304.37 259.99
  Q 278.88 263.87 252.25 263.38
  Q 233.90 263.05 220.53 261.47
  Q 214.47 260.76 213.15 260.49
  A 1.40 1.40 0.0 0 0 211.50 261.64
  L 208.57 280.11
  A 0.79 0.79 0.0 0 1 207.79 280.78
  L 195.11 280.78
  A 0.77 0.77 0.0 0 1 194.34 279.96
  Z
  M 360.29 284.89
  Q 344.97 293.10 331.87 297.11
  Q 325.98 298.91 316.78 299.18
  C 311.12 299.34 305.56 297.36 300.63 294.87
  Q 279.83 284.32 277.33 283.15
  C 271.94 280.61 267.05 280.67 261.63 283.68
  Q 256.59 286.48 255.43 287.43
  Q 238.22 301.36 234.74 304.03
  C 232.27 305.91 230.86 308.71 233.44 310.93
  C 237.52 314.45 246.74 312.20 251.43 310.41
  Q 257.77 307.99 262.91 304.69
  C 264.70 303.55 266.83 302.82 268.44 304.11
  Q 299.04 328.55 312.77 339.42
  A 1.76 1.74 -36.4 0 0 314.51 339.67
  L 356.04 323.11
  A 2.85 2.83 -3.1 0 0 357.72 321.25
  Q 362.69 303.73 360.70 285.11
  A 0.28 0.28 0.0 0 0 360.29 284.89
  Z
  M 246.03 285.12
  C 242.49 285.33 237.75 288.03 233.95 289.93
  Q 230.76 291.52 221.70 295.35
  C 212.34 299.30 203.74 300.34 194.65 298.38
  Q 176.60 294.48 158.42 286.36
  A 0.39 0.39 0.0 0 0 157.87 286.69
  Q 156.59 304.83 161.22 321.98
  A 2.35 2.34 3.6 0 0 162.62 323.56
  L 186.97 333.22
  A 1.43 1.43 0.0 0 0 188.65 332.75
  Q 192.31 327.93 195.76 326.82
  C 202.09 324.79 208.04 327.64 210.67 333.44
  A 0.64 0.64 0.0 0 0 211.55 333.74
  Q 219.64 329.41 225.78 336.27
  Q 228.29 339.07 228.40 342.76
  A 0.69 0.68 -2.4 0 0 229.13 343.42
  C 235.76 342.96 241.84 348.46 240.81 355.33
  A 0.51 0.51 0.0 0 0 241.32 355.92
  Q 246.02 355.89 248.52 357.99
  Q 260.75 368.26 276.01 379.38
  A 5.87 5.86 44.4 0 0 282.99 379.31
  L 283.18 379.16
  A 3.54 3.54 0.0 0 0 283.25 373.57
  Q 271.30 364.03 262.77 357.73
  C 259.30 355.17 258.42 353.71 261.55 350.22
  C 262.82 348.81 265.22 349.87 266.37 350.73
  Q 286.92 366.13 291.94 370.30
  A 4.70 4.70 0.0 0 0 298.20 370.07
  L 298.62 369.69
  A 4.02 4.02 0.0 0 0 298.37 363.57
  L 272.99 343.68
  A 3.40 3.39 38.1 0 1 272.41 338.91
  L 272.72 338.51
  A 3.58 3.57 -52.0 0 1 277.73 337.89
  Q 295.17 351.42 302.63 357.12
  Q 304.74 358.74 306.52 359.39
  A 1.76 1.74 -43.8 0 0 307.67 359.41
  C 313.05 357.60 314.20 353.22 311.44 348.48
  Q 310.92 347.59 306.51 344.08
  Q 280.25 323.20 266.16 312.11
  A 0.76 0.75 49.4 0 0 265.32 312.04
  C 255.16 317.72 238.98 324.62 228.61 316.20
  C 224.09 312.53 222.83 305.03 227.60 300.84
  Q 235.48 293.91 246.20 285.57
  A 0.25 0.25 0.0 0 0 246.03 285.12
  Z
  M 202.7495 334.1511
  A 8.11 4.99 -50.4 0 0 193.7351 337.2193
  A 8.11 4.99 -50.4 0 0 192.4105 346.6489
  A 8.11 4.99 -50.4 0 0 201.4249 343.5807
  A 8.11 4.99 -50.4 0 0 202.7495 334.1511
  Z
  M 165.98 333.98
  A 0.55 0.55 0.0 0 0 165.27 334.71
  Q 176.68 360.24 198.69 376.81
  Q 211.75 386.65 225.36 391.15
  Q 248.18 398.69 274.59 394.87
  C 279.94 394.09 284.39 392.50 289.02 391.52
  Q 294.34 390.40 299.56 388.05
  C 323.46 377.29 341.95 358.39 352.86 334.41
  A 0.43 0.42 -88.4 0 0 352.32 333.83
  L 319.79 346.80
  A 0.56 0.56 0.0 0 0 319.47 347.49
  L 320.34 350.18
  A 3.08 2.57 -61.7 0 1 320.45 350.72
  Q 321.61 362.45 311.23 366.39
  C 310.49 366.67 309.03 366.74 308.26 367.16
  A 1.43 1.42 -8.0 0 0 307.54 368.11
  Q 305.60 376.90 296.66 379.12
  A 2.84 1.99 12.8 0 1 296.29 379.18
  L 293.64 379.40
  A 1.33 1.33 0.0 0 0 292.55 380.17
  Q 288.05 390.09 277.02 388.40
  C 275.88 388.23 274.08 387.39 273.24 387.22
  A 0.97 0.94 24.2 0 0 272.33 387.55
  L 269.49 391.01
  A 2.06 2.06 0.0 0 1 269.15 391.35
  C 260.98 398.03 251.81 393.54 244.87 387.67
  A 1.40 1.40 0.0 0 0 243.16 387.59
  C 235.02 393.19 225.31 390.83 221.91 381.13
  A 1.08 1.07 -1.1 0 0 221.22 380.47
  C 220.13 380.11 218.65 380.56 217.40 380.34
  Q 207.94 378.68 206.48 369.25
  A 0.85 0.85 0.0 0 0 205.93 368.59
  Q 203.73 367.83 202.91 367.54
  Q 194.85 364.72 194.51 356.14
  A 0.71 0.71 0.0 0 0 193.93 355.48
  C 186.82 354.31 183.69 348.36 183.92 341.54
  A 0.62 0.61 -78.0 0 0 183.54 340.94
  L 165.98 333.98
  Z
  M 219.8876 347.4350
  A 4.60 4.60 0.0 0 0 219.5358 340.9391
  L 219.3125 340.7388
  A 4.60 4.60 0.0 0 0 212.8166 341.0906
  L 202.7724 352.2850
  A 4.60 4.60 0.0 0 0 203.1242 358.7809
  L 203.3475 358.9812
  A 4.60 4.60 0.0 0 0 209.8434 358.6294
  L 219.8876 347.4350
  Z
  M 215.22 370.78
  C 217.53 373.06 220.80 372.50 223.11 370.34
  Q 229.04 364.79 233.07 357.88
  C 234.26 355.85 234.55 353.97 233.01 352.19
  C 230.44 349.23 227.01 350.45 224.61 353.12
  Q 220.94 357.19 216.24 362.36
  C 213.66 365.21 212.36 367.96 215.22 370.78
  Z
  M 245.7926 371.7469
  A 5.08 5.08 0.0 0 0 245.2540 364.5829
  L 244.9052 364.2830
  A 5.08 5.08 0.0 0 0 237.7413 364.8216
  L 230.0074 373.8131
  A 5.08 5.08 0.0 0 0 230.5460 380.9771
  L 230.8948 381.2770
  A 5.08 5.08 0.0 0 0 238.0587 380.7384
  L 245.7926 371.7469
  Z
  M 249.10 379.47
  A 0.72 0.72 0.0 0 0 249.18 380.53
  L 256.52 386.28
  A 5.41 5.40 -46.8 0 0 263.46 386.05
  L 264.29 385.30
  A 3.26 3.26 0.0 0 0 264.13 380.30
  L 253.85 372.24
  A 0.64 0.63 26.6 0 0 252.85 372.57
  Q 251.79 376.54 249.10 379.47
  Z"
/>
<path fill="#00285e" d="
  M 730.71 289.24
  C 725.19 298.96 716.85 302.46 706.21 302.41
  C 691.33 302.35 680.01 294.59 675.47 280.52
  Q 668.46 258.79 676.64 238.11
  C 683.56 220.64 701.91 213.31 719.61 218.16
  Q 725.10 219.66 730.03 224.71
  A 0.10 0.10 0.0 0 0 730.20 224.64
  L 730.20 183.02
  A 0.38 0.38 0.0 0 1 730.58 182.64
  L 752.11 182.64
  A 0.49 0.49 0.0 0 1 752.60 183.13
  L 752.60 299.96
  A 0.56 0.56 0.0 0 1 752.04 300.52
  L 732.13 300.52
  A 0.74 0.74 0.0 0 1 731.39 299.78
  L 731.39 289.42
  A 0.36 0.36 0.0 0 0 730.71 289.24
  Z
  M 697.27 259.08
  C 697.11 269.55 699.93 283.60 713.42 283.81
  C 726.92 284.02 730.17 270.07 730.34 259.59
  C 730.50 249.12 727.68 235.07 714.19 234.86
  C 700.69 234.65 697.43 248.61 697.27 259.08
  Z"
/>
<path fill="#00285e" d="
  M 456.66 194.36
  Q 500.88 194.26 502.63 194.31
  A 0.39 0.38 1.1 0 1 503.01 194.69
  L 503.01 212.79
  A 0.46 0.46 0.0 0 1 502.55 213.25
  L 470.13 213.25
  A 0.53 0.53 0.0 0 0 469.60 213.78
  L 469.60 300.16
  A 0.26 0.25 -1.3 0 1 469.36 300.41
  Q 468.14 300.45 456.89 300.47
  Q 445.65 300.50 444.43 300.47
  A 0.26 0.25 1.1 0 1 444.19 300.22
  L 443.81 213.84
  A 0.53 0.53 0.0 0 0 443.27 213.31
  L 410.85 213.45
  A 0.46 0.46 0.0 0 1 410.39 212.99
  L 410.31 194.89
  A 0.39 0.38 -1.3 0 1 410.69 194.51
  Q 412.44 194.46 456.66 194.36
  Z"
/>
<path fill="#00285e" d="
  M 536.16 232.86
  A 0.40 0.39 -33.8 0 0 536.92 233.01
  C 542.68 219.14 555.01 214.70 569.22 217.32
  A 0.92 0.92 0.0 0 1 569.97 218.27
  L 568.85 239.61
  A 0.89 0.88 -82.7 0 1 567.80 240.43
  Q 559.10 238.73 551.05 240.54
  C 538.93 243.26 537.03 252.81 536.86 263.52
  Q 536.82 266.05 536.94 299.89
  A 0.64 0.64 0.0 0 1 536.30 300.53
  L 512.41 300.53
  A 0.51 0.51 0.0 0 1 511.90 300.02
  L 511.90 218.45
  A 0.35 0.35 0.0 0 1 512.25 218.10
  L 535.53 218.10
  A 0.63 0.63 0.0 0 1 536.16 218.73
  L 536.16 232.86
  Z"
/>
<path fill="#00285e" d="
  M 632.77 291.24
  C 625.10 301.86 613.80 303.30 601.53 302.16
  C 590.78 301.16 580.68 294.30 578.89 283.24
  C 575.80 264.20 590.46 254.78 606.98 252.13
  Q 618.66 250.26 631.56 250.22
  A 0.63 0.62 -88.0 0 0 632.18 249.63
  C 632.68 241.93 630.81 234.43 622.25 233.35
  C 616.02 232.55 609.77 233.02 605.78 238.32
  C 604.66 239.80 604.02 242.30 603.47 244.45
  A 0.64 0.63 13.2 0 1 602.72 244.91
  Q 592.31 242.74 581.45 242.56
  A 0.41 0.41 0.0 0 1 581.05 242.09
  Q 583.82 224.99 600.53 219.28
  Q 606.13 217.37 611.43 217.06
  C 634.51 215.72 655.53 219.00 655.55 247.50
  C 655.56 272.26 655.21 285.60 655.93 294.12
  Q 656.06 295.62 656.37 299.89
  A 0.57 0.56 -2.3 0 1 655.80 300.50
  L 635.44 300.50
  A 0.75 0.74 -4.5 0 1 634.70 299.88
  L 633.25 291.35
  A 0.27 0.26 -31.6 0 0 632.77 291.24
  Z
  M 631.45 264.46
  Q 622.92 264.14 614.39 265.64
  C 609.56 266.48 604.15 269.30 603.72 274.91
  Q 603.09 283.11 610.74 284.96
  C 619.37 287.06 629.73 283.08 631.65 273.46
  Q 632.52 269.07 632.19 265.16
  A 0.77 0.77 0.0 0 0 631.45 264.46
  Z"
/>
<path fill="#ff8a0a" d="
  M 360.29 284.89
  A 0.28 0.28 0.0 0 1 360.70 285.11
  Q 362.69 303.73 357.72 321.25
  A 2.85 2.83 -3.1 0 1 356.04 323.11
  L 314.51 339.67
  A 1.76 1.74 -36.4 0 1 312.77 339.42
  Q 299.04 328.55 268.44 304.11
  C 266.83 302.82 264.70 303.55 262.91 304.69
  Q 257.77 307.99 251.43 310.41
  C 246.74 312.20 237.52 314.45 233.44 310.93
  C 230.86 308.71 232.27 305.91 234.74 304.03
  Q 238.22 301.36 255.43 287.43
  Q 256.59 286.48 261.63 283.68
  C 267.05 280.67 271.94 280.61 277.33 283.15
  Q 279.83 284.32 300.63 294.87
  C 305.56 297.36 311.12 299.34 316.78 299.18
  Q 325.98 298.91 331.87 297.11
  Q 344.97 293.10 360.29 284.89
  Z"
/>
<path fill="#ff8a0a" d="
  M 246.03 285.12
  A 0.25 0.25 0.0 0 1 246.20 285.57
  Q 235.48 293.91 227.60 300.84
  C 222.83 305.03 224.09 312.53 228.61 316.20
  C 238.98 324.62 255.16 317.72 265.32 312.04
  A 0.76 0.75 49.4 0 1 266.16 312.11
  Q 280.25 323.20 306.51 344.08
  Q 310.92 347.59 311.44 348.48
  C 314.20 353.22 313.05 357.60 307.67 359.41
  A 1.76 1.74 -43.8 0 1 306.52 359.39
  Q 304.74 358.74 302.63 357.12
  Q 295.17 351.42 277.73 337.89
  A 3.58 3.57 -52.0 0 0 272.72 338.51
  L 272.41 338.91
  A 3.40 3.39 38.1 0 0 272.99 343.68
  L 298.37 363.57
  A 4.02 4.02 0.0 0 1 298.62 369.69
  L 298.20 370.07
  A 4.70 4.70 0.0 0 1 291.94 370.30
  Q 286.92 366.13 266.37 350.73
  C 265.22 349.87 262.82 348.81 261.55 350.22
  C 258.42 353.71 259.30 355.17 262.77 357.73
  Q 271.30 364.03 283.25 373.57
  A 3.54 3.54 0.0 0 1 283.18 379.16
  L 282.99 379.31
  A 5.87 5.86 44.4 0 1 276.01 379.38
  Q 260.75 368.26 248.52 357.99
  Q 246.02 355.89 241.32 355.92
  A 0.51 0.51 0.0 0 1 240.81 355.33
  C 241.84 348.46 235.76 342.96 229.13 343.42
  A 0.69 0.68 -2.4 0 1 228.40 342.76
  Q 228.29 339.07 225.78 336.27
  Q 219.64 329.41 211.55 333.74
  A 0.64 0.64 0.0 0 1 210.67 333.44
  C 208.04 327.64 202.09 324.79 195.76 326.82
  Q 192.31 327.93 188.65 332.75
  A 1.43 1.43 0.0 0 1 186.97 333.22
  L 162.62 323.56
  A 2.35 2.34 3.6 0 1 161.22 321.98
  Q 156.59 304.83 157.87 286.69
  A 0.39 0.39 0.0 0 1 158.42 286.36
  Q 176.60 294.48 194.65 298.38
  C 203.74 300.34 212.34 299.30 221.70 295.35
  Q 230.76 291.52 233.95 289.93
  C 237.75 288.03 242.49 285.33 246.03 285.12
  Z"
/>
<path fill="#00285e" d="
  M 465.50 358.65
  A 0.27 0.26 42.8 0 0 465.52 359.17
  Q 483.54 361.99 483.95 379.70
  C 484.39 398.75 469.21 406.11 452.51 406.17
  Q 439.06 406.22 410.02 406.17
  A 0.42 0.42 0.0 0 1 409.60 405.75
  L 409.60 317.69
  A 0.52 0.51 0.0 0 1 410.12 317.18
  Q 424.00 317.28 448.50 317.17
  C 457.12 317.13 465.80 317.84 472.97 322.75
  C 482.51 329.27 484.13 343.84 476.56 352.56
  Q 472.67 357.03 465.50 358.65
  Z
  M 430.12 331.83
  L 430.08 353.25
  A 0.27 0.27 0.0 0 0 430.35 353.52
  L 448.66 353.56
  A 12.10 10.07 0.1 0 0 460.78 343.51
  L 460.78 341.69
  A 12.10 10.07 0.1 0 0 448.70 331.60
  L 430.39 331.56
  A 0.27 0.27 0.0 0 0 430.12 331.83
  Z
  M 430.12 367.58
  L 430.12 390.52
  A 0.29 0.29 0.0 0 0 430.41 390.81
  L 449.98 390.81
  A 13.30 10.87 -0.0 0 0 463.28 379.94
  L 463.28 378.16
  A 13.30 10.87 0.0 0 0 449.98 367.29
  L 430.41 367.29
  A 0.29 0.29 0.0 0 0 430.12 367.58
  Z"
/>
<path fill="#00285e" d="
  M 669.83 391.15
  A 0.37 0.37 0.0 0 1 670.35 391.46
  L 671.18 404.61
  A 1.24 1.24 0.0 0 1 670.23 405.90
  C 663.31 407.57 654.34 408.19 647.16 406.27
  Q 640.45 404.48 637.37 398.07
  Q 635.70 394.60 635.61 385.18
  Q 635.48 372.72 635.50 354.31
  A 0.74 0.74 0.0 0 0 634.76 353.57
  L 625.89 353.57
  A 0.54 0.54 0.0 0 1 625.35 353.03
  L 625.35 340.05
  A 0.75 0.75 0.0 0 1 626.10 339.30
  L 634.97 339.30
  A 0.52 0.52 0.0 0 0 635.49 338.78
  L 635.49 322.47
  A 0.52 0.52 0.0 0 1 636.01 321.95
  L 654.93 321.95
  A 0.49 0.49 0.0 0 1 655.42 322.44
  L 655.42 338.95
  A 0.34 0.33 0.0 0 0 655.76 339.28
  L 670.50 339.28
  A 0.60 0.60 0.0 0 1 671.10 339.91
  L 670.40 353.24
  A 0.39 0.39 0.0 0 1 670.01 353.61
  L 655.96 353.61
  A 0.42 0.41 -0.0 0 0 655.54 354.02
  Q 655.35 373.70 655.59 385.74
  C 655.75 393.64 664.89 393.40 669.83 391.15
  Z"
/>
<ellipse fill="#ff8a0a" cx="0.00" cy="0.00" transform="translate(197.58,340.40) rotate(-50.4)" rx="8.11" ry="4.99"/>
<path fill="#00285e" d="
  M 540.93 397.26
  A 0.28 0.28 0.0 0 0 540.42 397.13
  Q 534.79 405.95 523.89 407.16
  C 509.20 408.79 494.50 402.46 496.12 385.05
  C 497.91 365.73 524.41 364.73 538.42 364.83
  A 1.17 1.17 0.0 0 0 539.60 363.70
  C 539.72 360.06 538.83 354.26 535.00 352.60
  C 527.79 349.48 517.93 350.70 516.37 359.98
  A 0.51 0.50 -79.0 0 1 515.77 360.39
  Q 505.76 358.22 498.81 358.34
  A 0.34 0.34 0.0 0 1 498.47 357.94
  C 501.57 340.86 517.18 337.44 532.23 338.13
  C 547.89 338.85 558.72 345.61 558.71 362.51
  Q 558.70 378.83 558.74 396.79
  C 558.75 400.02 559.33 402.81 559.44 405.67
  A 0.50 0.49 88.9 0 1 558.95 406.19
  L 542.03 406.19
  A 0.57 0.57 0.0 0 1 541.46 405.65
  L 540.93 397.26
  Z
  M 539.17 376.21
  Q 530.42 375.84 522.85 377.85
  C 518.99 378.87 516.01 382.01 516.25 386.28
  C 516.48 390.39 518.55 392.59 522.66 393.28
  C 529.96 394.49 537.79 390.54 539.37 382.85
  Q 539.81 380.75 539.76 376.82
  A 0.62 0.61 -89.5 0 0 539.17 376.21
  Z"
/>
<path fill="#00285e" d="
  M 618.97 357.38
  A 0.37 0.36 6.3 0 1 618.54 357.72
  C 609.35 356.06 598.07 357.73 595.59 368.07
  C 595.09 370.15 594.64 372.07 594.64 374.34
  Q 594.60 391.82 594.65 405.91
  A 0.27 0.27 0.0 0 1 594.38 406.18
  L 574.95 406.18
  A 0.61 0.61 0.0 0 1 574.34 405.57
  L 574.34 339.64
  A 0.33 0.33 0.0 0 1 574.67 339.31
  L 593.75 339.31
  A 0.57 0.57 0.0 0 1 594.32 339.88
  L 594.32 350.86
  A 0.26 0.26 0.0 0 0 594.81 350.96
  Q 601.49 335.52 619.04 338.53
  A 1.03 1.03 0.0 0 1 619.90 339.60
  L 618.97 357.38
  Z"
/>
<path fill="#00285e" d="
  M 740.39 385.75
  A 0.54 0.54 0.0 0 1 740.93 386.46
  Q 735.29 403.54 717.88 406.87
  Q 711.62 408.07 703.36 407.02
  C 681.09 404.20 674.45 384.19 677.78 364.74
  C 680.49 348.95 691.85 338.54 708.00 338.09
  C 717.17 337.83 725.73 339.42 732.43 345.41
  C 741.12 353.18 742.93 365.60 742.42 377.05
  A 0.39 0.39 0.0 0 1 742.03 377.43
  L 697.39 377.43
  A 0.67 0.67 0.0 0 0 696.72 378.06
  Q 696.52 380.85 697.44 384.09
  C 698.88 389.19 701.65 392.14 706.94 393.23
  C 713.38 394.54 720.82 392.02 722.73 385.10
  A 0.54 0.54 0.0 0 1 723.36 384.71
  Q 730.65 386.21 740.39 385.75
  Z
  M 697.54 364.93
  L 722.26 364.81
  A 0.23 0.23 0.0 0 0 722.48 364.57
  L 722.48 363.65
  A 12.55 11.82 89.7 0 0 710.59 351.17
  L 709.05 351.17
  A 12.55 11.82 89.7 0 0 697.30 363.79
  L 697.30 364.71
  A 0.23 0.23 0.0 0 0 697.54 364.93
  Z"
/>
<path fill="#00285e" d="
  M 773.56 406.19
  L 754.87 406.19
  A 0.55 0.55 0.0 0 1 754.32 405.64
  L 754.32 339.64
  A 0.34 0.34 0.0 0 1 754.66 339.30
  L 773.09 339.30
  A 0.60 0.60 0.0 0 1 773.69 339.90
  L 773.69 350.40
  A 0.27 0.26 -33.3 0 0 774.20 350.50
  Q 781.08 335.36 797.78 338.67
  A 0.58 0.57 -84.6 0 1 798.24 339.24
  L 798.24 357.29
  A 0.58 0.58 0.0 0 1 797.53 357.86
  Q 790.38 356.20 783.64 358.47
  C 775.06 361.36 774.17 369.87 774.17 378.01
  Q 774.18 402.60 774.14 405.62
  A 0.58 0.58 0.0 0 1 773.56 406.19
  Z"
/>
<rect fill="#ff8a0a" x="-4.75" y="-12.12" transform="translate(211.33,349.86) rotate(41.9)" width="9.50" height="24.24" rx="4.60"/>
<path fill="#ff8a0a" d="
  M 223.11 370.34
  C 220.80 372.50 217.53 373.06 215.22 370.78
  C 212.36 367.96 213.66 365.21 216.24 362.36
  Q 220.94 357.19 224.61 353.12
  C 227.01 350.45 230.44 349.23 233.01 352.19
  C 234.55 353.97 234.26 355.85 233.07 357.88
  Q 229.04 364.79 223.11 370.34
  Z"
/>
<rect fill="#ff8a0a" x="-5.31" y="-11.01" transform="translate(237.90,372.78) rotate(40.7)" width="10.62" height="22.02" rx="5.08"/>
<path fill="#ff8a0a" d="
  M 249.10 379.47
  Q 251.79 376.54 252.85 372.57
  A 0.64 0.63 26.6 0 1 253.85 372.24
  L 264.13 380.30
  A 3.26 3.26 0.0 0 1 264.29 385.30
  L 263.46 386.05
  A 5.41 5.40 -46.8 0 1 256.52 386.28
  L 249.18 380.53
  A 0.72 0.72 0.0 0 1 249.10 379.47
  Z"
/>
</svg>
