<?xml version="1.0" encoding="UTF-8" standalone="no"?>
<!DOCTYPE svg PUBLIC "-//W3C//DTD SVG 1.1//EN" "http://www.w3.org/Graphics/SVG/1.1/DTD/svg11.dtd">
<svg xmlns="http://www.w3.org/2000/svg" version="1.1" viewBox="0.00 0.00 847.00 847.00">
<g stroke-width="2.00" fill="none" stroke-linecap="butt">
<path stroke="#001533" vector-effect="non-scaling-stroke" d="
  M 458.29 32.67
  L 453.45 33.24
  A 0.99 0.95 46.2 0 1 453.21 33.23
  Q 449.36 32.69 444.50 33.08
  Q 442.69 33.22 434.85 32.44
  Q 432.06 32.16 422.32 32.35
  Q 413.67 32.53 409.80 32.55
  Q 395.62 32.62 392.30 32.77
  C 388.09 32.95 384.39 33.66 380.15 33.41
  A 5.84 5.80 39.1 0 0 378.36 33.59
  Q 373.22 34.93 371.91 35.00
  Q 366.69 35.27 365.08 35.88
  A 3.30 3.27 34.8 0 1 363.77 36.11
  Q 360.08 36.04 355.45 37.47
  A 1.11 0.90 -50.9 0 1 355.21 37.52
  L 348.20 38.07
  A 1.14 1.12 -56.6 0 0 347.87 38.14
  Q 345.68 38.95 339.89 40.39
  Q 338.34 40.77 335.07 41.11
  C 330.89 41.55 326.95 43.46 324.00 43.92
  Q 319.23 44.68 316.65 46.24
  A 2.58 2.50 -63.4 0 1 315.71 46.57
  Q 313.66 46.86 306.37 48.16
  Q 305.73 48.27 303.11 49.57
  Q 298.83 51.69 293.04 52.20
  Q 291.58 52.33 287.76 54.46
  A 7.50 7.17 21.8 0 1 286.02 55.16
  Q 278.33 57.22 275.54 58.10
  Q 274.64 58.39 265.93 62.27
  Q 264.54 62.89 262.46 64.17
  Q 259.51 65.98 255.04 66.83
  Q 251.83 67.44 245.92 70.91
  A 17.60 16.60 -69.5 0 1 243.54 72.08
  Q 234.81 75.56 233.40 76.43
  Q 227.27 80.22 217.88 84.92
  A 4.43 4.20 -76.2 0 0 217.18 85.37
  Q 214.24 87.65 210.32 89.68
  A 4.33 4.06 -78.4 0 0 209.40 90.33
  Q 207.83 91.81 206.76 92.51
  Q 198.62 97.81 186.99 105.62
  C 184.05 107.59 181.78 110.15 178.73 111.90
  Q 175.49 113.75 172.39 116.32
  Q 166.39 121.30 162.43 125.19
  Q 161.51 126.10 156.95 129.37
  A 5.57 5.29 -85.1 0 0 156.07 130.15
  Q 154.06 132.39 151.83 134.06
  C 147.85 137.04 146.21 139.00 141.56 143.15
  Q 138.94 145.49 135.84 148.75
  C 128.03 156.96 123.27 161.73 117.17 169.25
  Q 115.71 171.04 113.05 174.02
  Q 110.95 176.38 109.22 179.04
  A 9.06 8.61 -6.7 0 1 107.88 180.65
  Q 106.40 182.06 105.97 182.72
  Q 102.28 188.38 99.49 191.56
  Q 94.82 196.87 93.04 200.27
  Q 92.48 201.33 86.36 209.96
  Q 85.27 211.49 82.12 216.93
  Q 80.28 220.11 77.56 224.02
  A 2.73 2.58 -19.4 0 0 77.23 224.66
  L 75.92 228.43
  A 0.27 0.17 -31.7 0 1 75.89 228.49
  Q 75.07 229.57 71.70 234.79
  Q 70.18 237.13 68.06 241.29
  Q 65.86 245.59 63.08 250.80
  C 61.21 254.31 59.19 260.81 56.19 266.27
  A 3.63 3.46 -27.0 0 0 55.79 267.41
  Q 55.29 270.30 53.45 273.03
  A 2.95 2.91 68.6 0 0 53.03 274.01
  Q 51.96 278.78 50.31 282.55
  Q 48.11 287.57 45.58 294.69
  Q 45.03 296.25 44.71 297.81
  Q 44.21 300.27 43.92 300.97
  Q 41.19 307.58 40.89 311.38
  A 1.91 1.90 -25.1 0 1 40.53 312.36
  Q 39.52 313.75 38.07 321.31
  Q 37.39 324.85 34.52 333.74
  Q 33.35 337.39 33.79 340.48
  A 1.93 1.70 -47.7 0 1 33.78 341.05
  L 29.67 360.98
  A 4.12 3.68 -41.8 0 0 29.60 361.60
  Q 29.53 365.65 27.57 369.01"
/>
<path stroke="#001533" vector-effect="non-scaling-stroke" d="
  M 495.96 37.57
  Q 496.30 37.98 496.97 37.68"
/>
<path stroke="#001533" vector-effect="non-scaling-stroke" d="
  M 807.28 317.67
  L 808.35 328.28
  A 2.19 2.01 -61.0 0 0 808.47 328.78
  Q 809.73 331.84 809.80 332.29
  Q 810.35 335.89 811.44 341.44
  C 812.01 344.31 811.87 346.43 813.05 349.26
  Q 813.57 350.53 814.58 357.80
  C 814.93 360.38 815.96 362.75 815.89 365.00
  Q 815.80 367.72 816.27 370.48
  Q 817.76 379.30 818.45 385.28
  Q 819.07 390.60 818.21 395.17
  A 1.80 1.51 51.4 0 0 818.20 395.58
  L 819.45 407.48
  A 4.51 3.76 52.4 0 0 819.55 408.08
  L 821.00 413.70"
/>
<path stroke="#001533" vector-effect="non-scaling-stroke" d="
  M 821.05 413.96
  Q 820.89 414.77 821.15 415.05"
/>
<path stroke="#001533" vector-effect="non-scaling-stroke" d="
  M 821.00 441.54
  Q 818.04 450.74 817.66 460.32
  Q 817.36 468.02 816.98 470.62
  Q 816.36 474.78 815.81 481.55
  A 3.91 3.88 -31.3 0 1 815.50 482.80
  Q 815.16 483.61 813.52 493.34
  Q 812.74 497.92 809.60 509.49
  Q 808.92 511.98 810.25 515.17"
/>
<path stroke="#001533" vector-effect="non-scaling-stroke" d="
  M 429.46 814.39
  L 427.96 814.38"
/>
<path stroke="#001533" vector-effect="non-scaling-stroke" d="
  M 427.46 814.38
  L 425.29 814.38"
/>
<path stroke="#001533" vector-effect="non-scaling-stroke" d="
  M 383.78 812.40
  Q 375.12 811.58 366.61 809.58
  C 362.13 808.53 357.89 808.86 354.37 807.76
  Q 351.28 806.79 346.31 806.56
  Q 340.17 806.27 331.90 803.63
  C 330.13 803.07 328.09 802.94 325.11 802.63
  A 8.31 7.80 56.7 0 1 323.23 802.18
  C 318.82 800.55 314.51 799.91 309.75 798.05
  Q 304.10 795.83 293.83 792.86
  Q 290.96 792.03 290.22 791.63
  C 287.26 790.05 284.73 789.89 281.49 787.90
  C 279.18 786.47 276.36 786.10 273.75 784.62
  Q 271.09 783.10 270.52 783.02
  Q 263.25 781.96 257.29 778.55
  C 252.15 775.61 246.07 772.60 242.06 770.93
  A 6.27 6.25 76.9 0 1 240.32 769.84
  Q 237.24 767.14 233.08 765.85
  C 231.63 765.40 230.49 764.08 229.10 763.63
  C 225.85 762.59 223.63 760.54 220.64 758.70
  C 216.72 756.29 214.15 755.25 210.89 752.46
  Q 208.78 750.65 206.18 749.56
  C 204.12 748.70 202.76 747.43 200.61 746.21
  Q 199.28 745.46 196.73 743.50
  C 190.04 738.36 182.65 734.34 176.32 728.52
  Q 175.40 727.67 172.44 725.33
  Q 166.16 720.38 160.45 714.13
  C 158.06 711.52 154.90 708.98 152.93 707.41
  C 150.01 705.09 147.58 701.77 144.57 699.16
  C 140.92 696.00 136.71 691.40 134.34 688.94
  C 130.83 685.29 127.30 679.99 123.91 677.10
  A 9.18 9.12 -85.7 0 1 121.98 674.84
  Q 119.65 671.06 113.92 663.94
  Q 111.47 660.90 108.24 657.91
  Q 107.41 657.14 104.29 652.78
  C 102.51 650.29 100.05 647.85 98.57 644.99
  A 7.04 6.77 -78.9 0 0 97.87 643.90
  Q 93.37 638.33 90.37 632.83
  A 4.38 4.33 7.8 0 0 89.57 631.79
  Q 88.58 630.83 88.36 630.50
  Q 80.81 618.84 78.31 615.34
  Q 76.36 612.62 75.29 610.53
  Q 73.52 607.12 72.61 605.51
  C 71.63 603.77 70.88 601.20 69.60 599.21
  Q 68.25 597.10 67.06 594.67
  Q 61.72 583.81 59.54 579.52
  Q 57.38 575.28 54.75 568.19
  Q 52.33 561.66 50.17 556.73
  Q 49.17 554.46 48.49 551.85
  C 47.35 547.46 45.46 543.56 44.45 539.48
  C 43.39 535.21 41.33 531.61 40.70 527.28
  Q 40.67 527.10 38.79 520.26
  Q 38.12 517.84 37.27 513.15
  Q 36.62 509.61 34.95 505.73
  A 6.36 6.32 28.4 0 1 34.52 504.30
  L 30.87 483.71
  A 2.50 2.39 43.7 0 1 30.84 483.05
  Q 31.13 480.01 30.06 477.05
  A 3.55 3.44 34.6 0 1 29.88 476.15
  C 29.76 474.12 29.46 471.61 28.70 469.15
  Q 27.57 465.47 26.40 461.50"
/>
<path stroke="#001533" vector-effect="non-scaling-stroke" d="
  M 398.22 235.77
  Q 399.91 225.10 399.33 214.25
  C 398.95 207.23 399.35 198.02 399.35 193.28
  Q 399.38 162.74 399.36 155.77
  C 399.35 151.01 398.95 141.71 399.33 134.72
  Q 399.90 124.22 398.27 113.90"
/>
<path stroke="#001533" vector-effect="non-scaling-stroke" d="
  M 443.00 96.38
  Q 442.32 103.42 442.17 110.38
  Q 442.10 113.27 442.59 119.11
  Q 443.03 124.37 442.05 131.42
  Q 441.02 138.82 441.59 157.56
  Q 441.96 169.83 441.97 173.25
  Q 441.97 175.40 441.86 198.50
  Q 441.80 212.53 442.19 226.51
  Q 442.25 228.30 443.86 234.89"
/>
<path stroke="#001533" vector-effect="non-scaling-stroke" d="
  M 234.44 234.40
  Q 240.74 218.53 246.93 202.77
  Q 248.63 198.45 250.84 194.16
  Q 252.60 190.73 254.62 185.51
  A 3.37 3.29 -17.8 0 1 254.98 184.83
  Q 256.98 182.01 258.11 179.24
  A 4.14 4.05 -15.0 0 1 258.73 178.19
  Q 260.06 176.58 260.52 174.75
  A 4.96 4.81 66.7 0 1 260.92 173.70
  C 263.81 168.09 265.41 163.90 268.68 158.69
  Q 271.21 154.64 273.83 148.84
  Q 274.38 147.63 276.40 145.15
  A 5.59 5.16 75.6 0 0 277.38 143.33
  Q 277.56 142.77 278.58 141.10
  Q 282.10 135.35 287.44 128.62
  Q 291.14 123.97 292.73 121.62
  Q 295.14 118.07 297.62 114.32"
/>
<path stroke="#001533" vector-effect="non-scaling-stroke" d="
  M 583.54 334.80
  Q 584.29 326.09 580.40 317.89"
/>
<path stroke="#001533" vector-effect="non-scaling-stroke" d="
  M 566.25 303.35
  Q 565.38 303.10 565.20 303.43"
/>
<path stroke="#001533" vector-effect="non-scaling-stroke" d="
  M 493.60 310.77
  Q 484.26 309.57 474.98 310.11
  C 470.37 310.38 465.80 309.92 462.07 310.08
  Q 449.97 310.60 433.32 311.15
  A 2.86 2.82 34.1 0 0 432.41 311.32
  Q 429.89 312.18 425.82 311.83
  A 3.16 3.09 36.5 0 0 424.45 312.02
  C 422.53 312.75 419.38 311.96 416.69 313.63"
/>
<path stroke="#001533" vector-effect="non-scaling-stroke" d="
  M 350.56 311.45
  Q 349.26 310.75 347.42 311.44"
/>
<path stroke="#001533" vector-effect="non-scaling-stroke" d="
  M 319.49 309.52
  Q 318.86 309.14 318.02 309.36"
/>
<path stroke="#001533" vector-effect="non-scaling-stroke" d="
  M 296.52 307.52
  Q 296.20 307.26 295.51 307.31"
/>
<path stroke="#001533" vector-effect="non-scaling-stroke" d="
  M 204.69 400.58
  Q 209.07 403.08 212.56 403.42
  Q 219.75 404.11 222.02 404.97
  Q 223.33 405.48 231.20 405.30
  A 9.55 9.14 -39.6 0 1 232.98 405.43
  L 235.27 405.82
  A 3.29 2.96 20.6 0 0 235.73 405.85
  C 243.97 405.57 248.39 405.76 254.84 404.43
  Q 261.16 403.12 265.54 403.07
  A 5.37 5.34 30.2 0 0 268.00 402.43
  Q 270.35 401.15 271.38 400.98
  Q 278.16 399.86 285.14 396.10
  A 1.79 1.18 1.6 0 1 285.35 396.01
  L 295.73 392.20
  A 1.24 0.92 -53.3 0 1 295.93 392.14
  C 300.26 391.43 303.30 388.89 307.30 387.34
  Q 309.84 386.36 315.16 384.10
  Q 315.63 383.89 316.86 383.19
  Q 320.69 380.97 334.17 375.38
  Q 335.56 374.80 337.57 373.73
  Q 340.86 371.97 340.91 371.95
  Q 351.37 367.72 361.05 363.59
  Q 364.03 362.31 374.08 359.54
  A 2.91 2.75 -46.6 0 1 375.30 359.47
  Q 376.18 359.61 377.41 359.48
  Q 383.32 358.86 390.05 358.80
  C 396.18 358.74 402.25 361.18 407.16 363.54
  A 1.92 1.90 45.3 0 0 408.80 363.56
  Q 416.28 360.10 419.26 357.95
  A 1.30 1.22 13.2 0 1 419.52 357.80
  L 434.14 351.55
  A 0.70 0.69 -59.3 0 1 434.37 351.49
  Q 438.50 351.07 441.95 349.49
  A 4.99 4.56 -60.6 0 1 443.02 349.14
  Q 452.51 347.22 461.36 346.55
  Q 463.37 346.39 468.62 346.87
  Q 472.34 347.22 475.94 346.83"
/>
<path stroke="#001533" vector-effect="non-scaling-stroke" d="
  M 558.42 385.43
  Q 564.23 389.85 571.05 392.91
  Q 575.78 395.04 579.55 397.05
  Q 584.73 399.80 588.13 400.93
  Q 597.67 404.10 608.74 406.69
  A 6.19 6.18 51.7 0 0 610.18 406.86
  L 623.06 406.86
  A 1.74 1.52 32.9 0 0 623.54 406.79
  Q 629.21 405.11 636.98 404.67
  A 3.62 3.47 -54.3 0 0 637.96 404.49
  Q 639.44 404.02 642.64 403.17
  Q 646.79 402.08 647.84 401.91
  Q 653.13 401.09 663.18 397.72
  C 664.52 397.27 667.26 396.97 668.94 396.24
  Q 673.05 394.45 678.55 392.89
  C 683.81 391.40 688.17 389.08 692.55 387.88
  C 694.62 387.32 698.22 385.23 699.74 384.30
  A 5.02 4.83 21.7 0 1 701.16 383.72
  Q 704.08 383.03 706.19 381.93
  Q 709.55 380.17 710.90 379.70
  C 717.33 377.43 723.55 373.40 729.71 370.56
  Q 735.06 368.10 737.54 366.47
  Q 740.60 364.46 742.85 363.59
  Q 743.34 363.40 748.70 360.70
  A 1.61 1.38 4.4 0 0 749.07 360.43
  L 750.51 358.92
  A 0.49 0.48 11.9 0 1 750.73 358.78
  Q 753.33 357.85 756.64 355.16
  A 1.75 1.74 -13.4 0 0 757.26 354.16
  Q 758.00 350.90 757.43 348.77
  Q 754.75 338.75 754.80 335.37
  A 3.88 3.84 -59.8 0 0 754.30 333.43
  Q 753.52 332.02 751.95 325.26
  Q 749.70 315.60 745.93 307.53
  C 743.98 303.36 742.90 299.26 741.05 295.72
  A 10.90 10.55 -66.5 0 1 740.14 293.30
  C 738.98 288.53 736.76 284.49 735.02 279.90
  Q 732.96 274.48 729.30 268.62
  Q 728.35 267.09 726.55 266.30
  Q 725.17 265.69 723.00 266.31
  Q 716.06 268.26 709.88 272.04"
/>
<path stroke="#805935" vector-effect="non-scaling-stroke" d="
  M 763.55 385.78
  C 762.72 385.76 761.73 385.94 761.00 386.40
  Q 757.64 388.50 755.38 389.62
  Q 737.44 398.51 714.37 409.11
  Q 703.90 413.92 683.92 421.14
  Q 649.70 433.51 617.24 433.54
  C 604.17 433.56 592.38 431.72 580.95 427.13
  C 559.25 418.43 536.58 406.42 517.42 396.37
  Q 497.73 386.04 485.70 380.57
  C 478.69 377.38 470.14 373.80 461.49 373.78
  Q 451.05 373.77 448.85 374.33
  Q 439.85 376.65 430.56 381.80
  Q 417.34 389.13 410.27 394.51
  Q 399.26 402.91 390.93 409.83
  C 373.46 424.34 357.42 436.87 339.02 451.54
  C 337.06 453.10 333.86 455.98 333.12 458.34
  C 332.07 461.66 332.15 468.09 334.88 471.20
  C 340.73 477.86 351.85 479.52 360.35 479.08
  Q 373.51 478.39 384.49 475.24
  Q 403.00 469.93 421.73 460.09
  C 427.69 456.96 434.51 452.25 439.79 449.55
  C 447.08 445.83 452.19 448.13 458.08 452.93
  Q 459.73 454.27 466.40 459.56
  Q 478.95 469.52 505.92 491.33
  Q 523.50 505.55 598.30 564.78
  Q 601.15 567.03 604.33 569.37
  A 3.80 3.79 -37.8 0 0 608.01 569.83
  Q 610.27 568.92 613.38 567.38
  Q 614.75 566.71 643.27 555.76
  C 668.89 545.93 695.42 535.02 719.62 525.11
  C 730.05 520.84 737.07 518.46 748.27 514.05
  C 753.12 512.14 754.08 507.58 755.36 502.62
  Q 760.94 480.82 762.92 464.49
  C 764.11 454.64 765.13 448.52 765.45 440.55
  Q 766.57 412.35 764.22 386.41
  A 0.70 0.70 0.0 0 0 763.55 385.78"
/>
<path stroke="#805935" vector-effect="non-scaling-stroke" d="
  M 84.52 390.25
  A 0.79 0.78 17.3 0 0 83.37 390.85
  C 82.09 402.24 82.34 409.18 82.31 425.35
  Q 82.28 437.16 83.40 448.13
  Q 85.22 466.02 87.50 479.48
  C 89.05 488.59 92.05 499.91 93.37 507.36
  Q 94.48 513.67 100.84 516.17
  C 122.68 524.75 140.35 531.38 160.32 539.77
  Q 170.44 544.01 183.14 548.22
  A 2.27 2.27 0.0 0 0 185.77 547.26
  C 198.53 526.57 224.60 515.50 246.22 531.18
  Q 256.10 538.34 260.69 549.29
  A 1.41 1.41 0.0 0 0 262.73 549.94
  Q 282.92 537.42 302.59 550.31
  C 313.64 557.55 318.32 567.61 320.03 580.34
  A 2.08 2.08 0.0 0 0 322.42 582.12
  C 333.02 580.43 344.09 585.57 351.65 592.69
  C 358.59 599.24 364.30 612.90 361.26 622.71
  A 1.06 1.06 0.0 0 0 362.27 624.09
  C 367.92 624.09 370.97 623.67 375.18 624.94
  Q 382.94 627.27 388.69 631.87
  C 398.99 640.11 408.70 649.08 418.76 656.75
  Q 440.19 673.08 461.43 689.18
  C 468.38 694.45 472.90 698.42 479.30 702.50
  Q 486.90 707.34 495.77 706.36
  Q 501.66 705.72 505.62 700.87
  C 507.90 698.08 510.34 693.44 508.65 690.15
  Q 505.69 684.36 500.23 680.09
  Q 456.28 645.74 430.83 626.77
  Q 426.93 623.86 425.68 621.56
  C 422.66 615.99 426.22 609.78 430.34 605.59
  C 433.73 602.14 437.04 601.47 441.57 603.64
  C 447.30 606.39 453.59 610.80 457.51 613.98
  Q 461.20 616.97 487.13 636.65
  Q 499.25 645.85 512.02 655.48
  C 518.90 660.67 527.59 668.34 534.63 672.92
  C 538.72 675.59 542.15 677.10 546.90 675.40
  Q 554.44 672.70 558.02 666.67
  C 561.28 661.19 560.61 654.42 555.62 650.46
  Q 539.22 637.45 482.93 593.65
  Q 474.00 586.71 470.09 582.93
  Q 466.20 579.19 465.38 576.61
  C 463.48 570.60 467.88 565.39 472.59 561.80
  Q 477.26 558.24 482.29 561.45
  Q 486.85 564.35 494.96 570.80
  C 512.74 584.94 543.41 608.05 567.45 626.87
  Q 574.63 632.49 580.83 635.20
  C 585.90 637.42 593.05 633.32 596.67 629.90
  Q 605.78 621.29 602.76 608.99
  Q 600.15 598.33 591.37 591.87
  Q 587.93 589.33 584.91 586.83
  Q 569.62 574.13 534.76 546.73
  Q 519.84 535.01 514.30 530.74
  C 505.89 524.25 497.66 517.24 490.33 511.43
  Q 470.09 495.35 445.81 476.52
  A 1.59 1.58 -41.9 0 0 444.02 476.43
  C 432.31 483.64 421.53 488.05 406.52 493.96
  Q 391.90 499.73 373.36 503.15
  C 362.60 505.13 353.23 503.62 342.97 502.04
  Q 340.96 501.73 333.79 498.72
  C 321.16 493.39 311.29 484.48 308.00 470.97
  Q 303.25 451.41 317.92 438.42
  C 323.64 433.36 328.57 428.86 334.50 424.04
  Q 366.54 398.01 379.67 387.57
  A 0.92 0.91 -62.2 0 0 379.17 385.94
  Q 377.42 385.81 375.43 386.43
  Q 362.38 390.48 348.85 397.38
  C 329.72 407.12 311.46 414.77 291.07 423.28
  Q 267.93 432.94 242.69 433.94
  Q 233.26 434.31 220.39 432.75
  Q 207.81 431.23 198.32 429.17
  C 179.12 425.02 161.06 419.01 140.27 412.24
  C 123.59 406.81 108.30 400.45 92.51 393.99
  Q 88.36 392.29 84.52 390.25"
/>
<path stroke="#805935" vector-effect="non-scaling-stroke" d="
  M 201.21 593.35
  C 205.49 596.10 208.77 597.16 213.49 595.24
  Q 219.72 592.70 223.59 587.84
  Q 228.46 581.71 233.99 574.76
  C 239.55 567.76 241.14 557.55 233.48 551.29
  C 220.34 540.55 202.85 560.71 197.01 570.69
  C 192.59 578.24 193.36 588.29 201.21 593.35"
/>
<path stroke="#001533" vector-effect="non-scaling-stroke" d="
  M 343.54 740.31
  L 338.96 740.27"
/>
<path stroke="#001533" vector-effect="non-scaling-stroke" d="
  M 240.23 708.35
  C 245.57 712.93 252.06 716.40 257.56 720.30
  C 261.57 723.15 266.85 724.77 271.64 727.57
  Q 281.99 733.60 285.45 735.05
  Q 303.48 742.59 305.21 743.45
  A 1.37 1.31 54.8 0 0 305.92 743.59
  Q 306.48 743.55 308.51 743.97
  Q 309.67 744.21 314.32 745.88
  Q 316.09 746.51 320.24 747.44
  Q 322.36 747.91 326.97 749.90
  A 0.97 0.77 -24.9 0 0 327.30 749.98
  L 335.14 750.72
  A 3.50 3.45 -25.9 0 1 336.62 751.22
  Q 339.18 752.83 343.00 753.07
  A 3.47 3.30 55.2 0 1 343.92 753.26
  Q 348.29 754.91 353.18 754.83
  A 1.71 1.36 -33.0 0 1 353.49 754.86
  L 360.34 756.57
  A 2.31 2.30 48.8 0 0 361.19 756.63
  C 362.99 756.44 364.12 756.22 365.99 756.52
  Q 371.33 757.37 372.88 757.45
  Q 373.04 757.46 379.71 758.74
  Q 388.93 760.50 398.06 758.79"
/>
<path stroke="#001533" vector-effect="non-scaling-stroke" d="
  M 422.48 759.60
  C 426.59 761.15 430.02 761.05 434.49 760.76
  C 440.12 760.38 445.97 761.18 450.92 760.49
  Q 456.32 759.73 463.76 758.16
  C 469.23 757.00 473.83 756.97 478.89 756.87
  A 4.50 4.29 36.1 0 0 479.87 756.74
  C 484.04 755.67 487.22 755.65 490.81 754.38
  Q 491.34 754.19 498.40 752.33
  C 503.55 750.97 508.18 750.57 513.84 748.39
  C 518.03 746.77 523.31 746.70 527.80 744.74
  Q 530.05 743.77 532.81 743.13
  Q 534.44 742.75 542.21 740.68
  Q 546.82 739.46 551.31 737.39
  Q 563.58 731.76 564.22 731.44
  C 570.13 728.48 575.02 725.85 580.76 723.76
  A 7.26 7.08 16.3 0 0 582.47 722.85
  C 586.82 719.74 592.09 717.54 596.98 714.32
  Q 604.44 709.40 609.00 706.90
  Q 614.44 703.92 620.79 699.21
  Q 631.91 690.96 637.08 686.56
  Q 640.19 683.92 641.93 682.66
  Q 647.45 678.67 654.94 670.68
  C 657.44 668.01 660.12 666.17 662.52 663.31
  Q 663.48 662.17 668.00 657.71
  Q 674.30 651.51 682.75 642.31
  C 687.09 637.59 690.18 632.20 693.79 628.24
  Q 697.66 623.98 702.01 617.65
  C 708.41 608.32 711.77 603.65 715.54 596.70
  Q 717.44 593.20 719.38 590.17
  Q 722.51 585.27 723.28 583.10
  Q 724.22 580.47 725.21 579.64
  A 1.25 1.23 83.2 0 0 725.55 579.20
  Q 730.42 569.13 731.18 567.85
  Q 733.25 564.37 734.39 560.05
  A 2.77 2.66 -20.3 0 1 734.81 559.18
  Q 736.36 557.14 736.02 555.13"
/>
<path stroke="#805935" vector-effect="non-scaling-stroke" d="
  M 288.30 598.59
  C 294.53 591.73 297.79 580.78 290.69 573.33
  C 286.52 568.95 277.67 569.10 272.99 571.70
  C 261.52 578.06 253.87 588.95 244.91 598.94
  Q 235.83 609.05 233.91 611.75
  C 229.02 618.62 229.16 628.25 235.81 634.33
  C 241.29 639.34 247.95 639.51 254.10 635.56
  Q 257.84 633.15 258.36 632.61
  Q 259.96 630.97 278.15 610.14
  Q 286.80 600.24 288.30 598.59"
/>
<path stroke="#805935" vector-effect="non-scaling-stroke" d="
  M 331.11 637.68
  C 337.69 628.44 343.61 618.04 332.53 608.78
  Q 328.87 605.73 324.54 605.84
  C 317.92 606.01 314.49 607.43 309.43 612.39
  Q 302.06 619.60 297.07 625.70
  Q 290.06 634.24 287.66 636.55
  C 282.89 641.14 277.18 647.14 272.86 653.12
  Q 270.86 655.89 270.61 658.22
  Q 269.03 672.60 281.47 677.71
  C 291.20 681.71 301.91 673.88 308.19 666.90
  C 316.30 657.90 323.89 647.82 331.11 637.68"
/>
<path stroke="#805935" vector-effect="non-scaling-stroke" d="
  M 320.77 695.78
  C 321.41 704.14 327.64 711.10 335.47 713.03
  C 348.83 716.32 366.05 692.86 372.41 683.86
  Q 377.44 676.72 378.66 674.34
  C 380.79 670.17 383.59 662.65 381.35 658.66
  C 375.85 648.87 362.43 643.71 353.67 652.17
  Q 345.87 659.70 340.33 666.51
  Q 335.31 672.66 334.11 673.92
  C 330.07 678.12 325.40 683.32 322.78 688.77
  Q 320.58 693.32 320.77 695.78"
/>
<path stroke="#805935" vector-effect="non-scaling-stroke" d="
  M 403.81 678.71
  A 1.06 1.06 0.0 0 0 402.21 679.33
  Q 398.40 693.65 388.46 704.38
  A 1.21 1.20 41.3 0 0 388.58 706.13
  Q 398.13 714.12 407.86 720.89
  C 414.71 725.65 424.46 731.67 432.62 728.17
  Q 439.60 725.18 443.74 717.76
  C 446.64 712.58 444.23 708.47 440.00 705.26
  Q 426.34 694.89 409.03 682.88
  C 407.04 681.50 405.47 679.79 403.81 678.71"
/>
</g>
<path fill="#000206" d="
  M 458.29 32.67
  L 453.45 33.24
  A 0.99 0.95 46.2 0 1 453.21 33.23
  Q 449.36 32.69 444.50 33.08
  Q 442.69 33.22 434.85 32.44
  Q 432.06 32.16 422.32 32.35
  Q 413.67 32.53 409.80 32.55
  Q 395.62 32.62 392.30 32.77
  C 388.09 32.95 384.39 33.66 380.15 33.41
  A 5.84 5.80 39.1 0 0 378.36 33.59
  Q 373.22 34.93 371.91 35.00
  Q 366.69 35.27 365.08 35.88
  A 3.30 3.27 34.8 0 1 363.77 36.11
  Q 360.08 36.04 355.45 37.47
  A 1.11 0.90 -50.9 0 1 355.21 37.52
  L 348.20 38.07
  A 1.14 1.12 -56.6 0 0 347.87 38.14
  Q 345.68 38.95 339.89 40.39
  Q 338.34 40.77 335.07 41.11
  C 330.89 41.55 326.95 43.46 324.00 43.92
  Q 319.23 44.68 316.65 46.24
  A 2.58 2.50 -63.4 0 1 315.71 46.57
  Q 313.66 46.86 306.37 48.16
  Q 305.73 48.27 303.11 49.57
  Q 298.83 51.69 293.04 52.20
  Q 291.58 52.33 287.76 54.46
  A 7.50 7.17 21.8 0 1 286.02 55.16
  Q 278.33 57.22 275.54 58.10
  Q 274.64 58.39 265.93 62.27
  Q 264.54 62.89 262.46 64.17
  Q 259.51 65.98 255.04 66.83
  Q 251.83 67.44 245.92 70.91
  A 17.60 16.60 -69.5 0 1 243.54 72.08
  Q 234.81 75.56 233.40 76.43
  Q 227.27 80.22 217.88 84.92
  A 4.43 4.20 -76.2 0 0 217.18 85.37
  Q 214.24 87.65 210.32 89.68
  A 4.33 4.06 -78.4 0 0 209.40 90.33
  Q 207.83 91.81 206.76 92.51
  Q 198.62 97.81 186.99 105.62
  C 184.05 107.59 181.78 110.15 178.73 111.90
  Q 175.49 113.75 172.39 116.32
  Q 166.39 121.30 162.43 125.19
  Q 161.51 126.10 156.95 129.37
  A 5.57 5.29 -85.1 0 0 156.07 130.15
  Q 154.06 132.39 151.83 134.06
  C 147.85 137.04 146.21 139.00 141.56 143.15
  Q 138.94 145.49 135.84 148.75
  C 128.03 156.96 123.27 161.73 117.17 169.25
  Q 115.71 171.04 113.05 174.02
  Q 110.95 176.38 109.22 179.04
  A 9.06 8.61 -6.7 0 1 107.88 180.65
  Q 106.40 182.06 105.97 182.72
  Q 102.28 188.38 99.49 191.56
  Q 94.82 196.87 93.04 200.27
  Q 92.48 201.33 86.36 209.96
  Q 85.27 211.49 82.12 216.93
  Q 80.28 220.11 77.56 224.02
  A 2.73 2.58 -19.4 0 0 77.23 224.66
  L 75.92 228.43
  A 0.27 0.17 -31.7 0 1 75.89 228.49
  Q 75.07 229.57 71.70 234.79
  Q 70.18 237.13 68.06 241.29
  Q 65.86 245.59 63.08 250.80
  C 61.21 254.31 59.19 260.81 56.19 266.27
  A 3.63 3.46 -27.0 0 0 55.79 267.41
  Q 55.29 270.30 53.45 273.03
  A 2.95 2.91 68.6 0 0 53.03 274.01
  Q 51.96 278.78 50.31 282.55
  Q 48.11 287.57 45.58 294.69
  Q 45.03 296.25 44.71 297.81
  Q 44.21 300.27 43.92 300.97
  Q 41.19 307.58 40.89 311.38
  A 1.91 1.90 -25.1 0 1 40.53 312.36
  Q 39.52 313.75 38.07 321.31
  Q 37.39 324.85 34.52 333.74
  Q 33.35 337.39 33.79 340.48
  A 1.93 1.70 -47.7 0 1 33.78 341.05
  L 29.67 360.98
  A 4.12 3.68 -41.8 0 0 29.60 361.60
  Q 29.53 365.65 27.57 369.01
  Q 27.94 362.93 28.25 361.01
  Q 31.54 340.85 34.57 328.03
  Q 46.31 278.42 69.71 234.68
  Q 86.06 204.13 111.16 173.11
  C 117.72 165.00 122.76 160.12 130.17 152.17
  Q 134.14 147.91 138.09 144.08
  Q 160.99 121.95 187.89 102.28
  Q 196.80 95.75 209.02 88.35
  Q 225.83 78.17 230.97 75.73
  Q 250.67 66.38 259.42 62.71
  Q 299.44 45.93 347.08 36.96
  Q 353.18 35.82 357.04 35.56
  Q 360.50 35.33 363.67 34.74
  C 369.49 33.64 375.55 33.41 380.95 32.60
  Q 385.53 31.91 391.59 31.76
  Q 423.59 30.94 454.25 31.99
  Q 455.58 32.04 458.29 32.67
  Z"
/>
<path fill="#00285f" d="
  M 458.29 32.67
  Q 477.28 33.97 495.96 37.57
  Q 496.30 37.98 496.97 37.68
  Q 525.20 43.25 534.13 45.89
  C 542.69 48.43 552.94 51.15 561.36 54.47
  C 566.45 56.48 571.72 57.99 577.01 60.16
  C 610.05 73.66 642.30 91.36 670.58 113.12
  Q 673.11 115.06 677.28 118.61
  C 680.49 121.34 683.15 123.06 686.29 125.76
  Q 714.30 149.87 731.71 171.54
  Q 774.45 224.76 798.08 288.89
  Q 803.34 303.17 807.28 317.67
  L 808.35 328.28
  A 2.19 2.01 -61.0 0 0 808.47 328.78
  Q 809.73 331.84 809.80 332.29
  Q 810.35 335.89 811.44 341.44
  C 812.01 344.31 811.87 346.43 813.05 349.26
  Q 813.57 350.53 814.58 357.80
  C 814.93 360.38 815.96 362.75 815.89 365.00
  Q 815.80 367.72 816.27 370.48
  Q 817.76 379.30 818.45 385.28
  Q 819.07 390.60 818.21 395.17
  A 1.80 1.51 51.4 0 0 818.20 395.58
  L 819.45 407.48
  A 4.51 3.76 52.4 0 0 819.55 408.08
  L 821.00 413.70
  Q 821.03 413.83 821.05 413.96
  Q 820.89 414.77 821.15 415.05
  Q 822.06 428.29 821.00 441.54
  Q 818.04 450.74 817.66 460.32
  Q 817.36 468.02 816.98 470.62
  Q 816.36 474.78 815.81 481.55
  A 3.91 3.88 -31.3 0 1 815.50 482.80
  Q 815.16 483.61 813.52 493.34
  Q 812.74 497.92 809.60 509.49
  Q 808.92 511.98 810.25 515.17
  Q 808.87 520.99 807.82 524.59
  Q 795.05 568.34 772.71 608.01
  Q 764.83 622.01 753.36 639.12
  Q 749.50 644.88 737.42 660.79
  C 725.39 676.64 712.24 690.91 697.96 704.96
  Q 689.74 713.05 683.75 717.91
  C 677.59 722.91 672.41 727.79 665.03 733.53
  Q 631.00 760.00 596.22 776.96
  Q 593.09 778.49 581.37 783.65
  C 566.40 790.24 550.03 795.74 535.02 800.00
  C 523.34 803.31 512.51 805.32 495.80 808.73
  Q 489.42 810.03 485.66 810.40
  C 480.82 810.87 476.90 812.02 472.09 812.14
  Q 468.51 812.23 459.81 813.17
  C 449.70 814.27 439.61 814.41 429.46 814.39
  L 427.96 814.38
  L 427.46 814.38
  L 425.29 814.38
  C 410.39 814.43 397.45 814.89 383.78 812.40
  Q 375.12 811.58 366.61 809.58
  C 362.13 808.53 357.89 808.86 354.37 807.76
  Q 351.28 806.79 346.31 806.56
  Q 340.17 806.27 331.90 803.63
  C 330.13 803.07 328.09 802.94 325.11 802.63
  A 8.31 7.80 56.7 0 1 323.23 802.18
  C 318.82 800.55 314.51 799.91 309.75 798.05
  Q 304.10 795.83 293.83 792.86
  Q 290.96 792.03 290.22 791.63
  C 287.26 790.05 284.73 789.89 281.49 787.90
  C 279.18 786.47 276.36 786.10 273.75 784.62
  Q 271.09 783.10 270.52 783.02
  Q 263.25 781.96 257.29 778.55
  C 252.15 775.61 246.07 772.60 242.06 770.93
  A 6.27 6.25 76.9 0 1 240.32 769.84
  Q 237.24 767.14 233.08 765.85
  C 231.63 765.40 230.49 764.08 229.10 763.63
  C 225.85 762.59 223.63 760.54 220.64 758.70
  C 216.72 756.29 214.15 755.25 210.89 752.46
  Q 208.78 750.65 206.18 749.56
  C 204.12 748.70 202.76 747.43 200.61 746.21
  Q 199.28 745.46 196.73 743.50
  C 190.04 738.36 182.65 734.34 176.32 728.52
  Q 175.40 727.67 172.44 725.33
  Q 166.16 720.38 160.45 714.13
  C 158.06 711.52 154.90 708.98 152.93 707.41
  C 150.01 705.09 147.58 701.77 144.57 699.16
  C 140.92 696.00 136.71 691.40 134.34 688.94
  C 130.83 685.29 127.30 679.99 123.91 677.10
  A 9.18 9.12 -85.7 0 1 121.98 674.84
  Q 119.65 671.06 113.92 663.94
  Q 111.47 660.90 108.24 657.91
  Q 107.41 657.14 104.29 652.78
  C 102.51 650.29 100.05 647.85 98.57 644.99
  A 7.04 6.77 -78.9 0 0 97.87 643.90
  Q 93.37 638.33 90.37 632.83
  A 4.38 4.33 7.8 0 0 89.57 631.79
  Q 88.58 630.83 88.36 630.50
  Q 80.81 618.84 78.31 615.34
  Q 76.36 612.62 75.29 610.53
  Q 73.52 607.12 72.61 605.51
  C 71.63 603.77 70.88 601.20 69.60 599.21
  Q 68.25 597.10 67.06 594.67
  Q 61.72 583.81 59.54 579.52
  Q 57.38 575.28 54.75 568.19
  Q 52.33 561.66 50.17 556.73
  Q 49.17 554.46 48.49 551.85
  C 47.35 547.46 45.46 543.56 44.45 539.48
  C 43.39 535.21 41.33 531.61 40.70 527.28
  Q 40.67 527.10 38.79 520.26
  Q 38.12 517.84 37.27 513.15
  Q 36.62 509.61 34.95 505.73
  A 6.36 6.32 28.4 0 1 34.52 504.30
  L 30.87 483.71
  A 2.50 2.39 43.7 0 1 30.84 483.05
  Q 31.13 480.01 30.06 477.05
  A 3.55 3.44 34.6 0 1 29.88 476.15
  C 29.76 474.12 29.46 471.61 28.70 469.15
  Q 27.57 465.47 26.40 461.50
  Q 25.78 454.68 25.01 447.66
  Q 24.12 439.60 24.04 433.80
  C 23.84 420.98 23.58 403.06 25.35 389.57
  Q 25.69 386.94 26.27 376.25
  Q 26.48 372.21 27.57 369.01
  Q 29.53 365.65 29.60 361.60
  A 4.12 3.68 -41.8 0 1 29.67 360.98
  L 33.78 341.05
  A 1.93 1.70 -47.7 0 0 33.79 340.48
  Q 33.35 337.39 34.52 333.74
  Q 37.39 324.85 38.07 321.31
  Q 39.52 313.75 40.53 312.36
  A 1.91 1.90 -25.1 0 0 40.89 311.38
  Q 41.19 307.58 43.92 300.97
  Q 44.21 300.27 44.71 297.81
  Q 45.03 296.25 45.58 294.69
  Q 48.11 287.57 50.31 282.55
  Q 51.96 278.78 53.03 274.01
  A 2.95 2.91 68.6 0 1 53.45 273.03
  Q 55.29 270.30 55.79 267.41
  A 3.63 3.46 -27.0 0 1 56.19 266.27
  C 59.19 260.81 61.21 254.31 63.08 250.80
  Q 65.86 245.59 68.06 241.29
  Q 70.18 237.13 71.70 234.79
  Q 75.07 229.57 75.89 228.49
  A 0.27 0.17 -31.7 0 0 75.92 228.43
  L 77.23 224.66
  A 2.73 2.58 -19.4 0 1 77.56 224.02
  Q 80.28 220.11 82.12 216.93
  Q 85.27 211.49 86.36 209.96
  Q 92.48 201.33 93.04 200.27
  Q 94.82 196.87 99.49 191.56
  Q 102.28 188.38 105.97 182.72
  Q 106.40 182.06 107.88 180.65
  A 9.06 8.61 -6.7 0 0 109.22 179.04
  Q 110.95 176.38 113.05 174.02
  Q 115.71 171.04 117.17 169.25
  C 123.27 161.73 128.03 156.96 135.84 148.75
  Q 138.94 145.49 141.56 143.15
  C 146.21 139.00 147.85 137.04 151.83 134.06
  Q 154.06 132.39 156.07 130.15
  A 5.57 5.29 -85.1 0 1 156.95 129.37
  Q 161.51 126.10 162.43 125.19
  Q 166.39 121.30 172.39 116.32
  Q 175.49 113.75 178.73 111.90
  C 181.78 110.15 184.05 107.59 186.99 105.62
  Q 198.62 97.81 206.76 92.51
  Q 207.83 91.81 209.40 90.33
  A 4.33 4.06 -78.4 0 1 210.32 89.68
  Q 214.24 87.65 217.18 85.37
  A 4.43 4.20 -76.2 0 1 217.88 84.92
  Q 227.27 80.22 233.40 76.43
  Q 234.81 75.56 243.54 72.08
  A 17.60 16.60 -69.5 0 0 245.92 70.91
  Q 251.83 67.44 255.04 66.83
  Q 259.51 65.98 262.46 64.17
  Q 264.54 62.89 265.93 62.27
  Q 274.64 58.39 275.54 58.10
  Q 278.33 57.22 286.02 55.16
  A 7.50 7.17 21.8 0 0 287.76 54.46
  Q 291.58 52.33 293.04 52.20
  Q 298.83 51.69 303.11 49.57
  Q 305.73 48.27 306.37 48.16
  Q 313.66 46.86 315.71 46.57
  A 2.58 2.50 -63.4 0 0 316.65 46.24
  Q 319.23 44.68 324.00 43.92
  C 326.95 43.46 330.89 41.55 335.07 41.11
  Q 338.34 40.77 339.89 40.39
  Q 345.68 38.95 347.87 38.14
  A 1.14 1.12 -56.6 0 1 348.20 38.07
  L 355.21 37.52
  A 1.11 0.90 -50.9 0 0 355.45 37.47
  Q 360.08 36.04 363.77 36.11
  A 3.30 3.27 34.8 0 0 365.08 35.88
  Q 366.69 35.27 371.91 35.00
  Q 373.22 34.93 378.36 33.59
  A 5.84 5.80 39.1 0 1 380.15 33.41
  C 384.39 33.66 388.09 32.95 392.30 32.77
  Q 395.62 32.62 409.80 32.55
  Q 413.67 32.53 422.32 32.35
  Q 432.06 32.16 434.85 32.44
  Q 442.69 33.22 444.50 33.08
  Q 449.36 32.69 453.21 33.23
  A 0.99 0.95 46.2 0 0 453.45 33.24
  L 458.29 32.67
  Z
  M 398.22 235.77
  Q 399.91 225.10 399.33 214.25
  C 398.95 207.23 399.35 198.02 399.35 193.28
  Q 399.38 162.74 399.36 155.77
  C 399.35 151.01 398.95 141.71 399.33 134.72
  Q 399.90 124.22 398.27 113.90
  L 398.62 95.95
  A 1.30 1.30 0.0 0 0 397.01 94.66
  Q 391.56 96.00 387.40 97.91
  C 380.60 101.05 374.07 104.20 367.66 108.72
  Q 352.88 119.12 341.63 132.12
  Q 323.39 153.17 310.14 177.10
  Q 299.84 195.69 294.20 209.18
  Q 291.68 215.22 286.55 228.32
  C 283.63 235.78 282.08 241.90 278.89 249.38
  Q 278.06 251.33 278.40 253.87
  A 1.00 1.00 0.0 0 0 279.33 254.73
  Q 292.05 255.43 300.04 256.90
  Q 305.27 257.87 309.54 258.01
  C 314.75 258.18 320.13 259.64 325.47 259.80
  C 331.41 259.98 334.79 259.91 341.55 260.80
  Q 346.75 261.48 352.76 261.67
  Q 370.93 262.24 388.00 263.45
  Q 392.75 263.78 396.98 263.30
  A 1.62 1.62 0.0 0 0 398.41 261.68
  L 398.22 235.77
  Z
  M 443.00 96.38
  Q 442.32 103.42 442.17 110.38
  Q 442.10 113.27 442.59 119.11
  Q 443.03 124.37 442.05 131.42
  Q 441.02 138.82 441.59 157.56
  Q 441.96 169.83 441.97 173.25
  Q 441.97 175.40 441.86 198.50
  Q 441.80 212.53 442.19 226.51
  Q 442.25 228.30 443.86 234.89
  Q 443.92 247.94 443.88 261.23
  Q 443.87 263.71 446.18 263.59
  Q 466.46 262.52 485.75 261.76
  Q 493.20 261.46 499.77 260.60
  C 507.39 259.61 513.04 260.03 520.72 258.95
  C 527.86 257.94 533.69 258.17 540.04 256.95
  Q 548.13 255.39 558.24 255.73
  Q 559.27 255.76 562.97 254.87
  A 0.73 0.73 0.0 0 0 563.54 254.21
  Q 563.73 252.09 563.30 250.95
  Q 558.55 238.29 548.72 214.54
  Q 539.19 191.50 526.37 170.96
  Q 516.83 155.65 507.40 143.57
  C 494.15 126.59 479.70 111.46 462.28 102.52
  Q 456.81 99.71 448.23 96.93
  Q 448.05 96.87 445.42 95.75
  Q 443.14 94.79 443.00 96.38
  Z
  M 234.44 234.40
  Q 240.74 218.53 246.93 202.77
  Q 248.63 198.45 250.84 194.16
  Q 252.60 190.73 254.62 185.51
  A 3.37 3.29 -17.8 0 1 254.98 184.83
  Q 256.98 182.01 258.11 179.24
  A 4.14 4.05 -15.0 0 1 258.73 178.19
  Q 260.06 176.58 260.52 174.75
  A 4.96 4.81 66.7 0 1 260.92 173.70
  C 263.81 168.09 265.41 163.90 268.68 158.69
  Q 271.21 154.64 273.83 148.84
  Q 274.38 147.63 276.40 145.15
  A 5.59 5.16 75.6 0 0 277.38 143.33
  Q 277.56 142.77 278.58 141.10
  Q 282.10 135.35 287.44 128.62
  Q 291.14 123.97 292.73 121.62
  Q 295.14 118.07 297.62 114.32
  L 300.30 109.65
  A 0.73 0.73 0.0 0 0 299.56 108.56
  Q 297.16 108.91 294.26 110.02
  C 285.73 113.27 276.54 116.72 267.74 121.04
  Q 231.42 138.87 200.73 164.29
  C 186.48 176.10 174.54 188.29 161.37 201.87
  Q 158.97 204.34 154.96 209.71
  Q 152.25 213.33 146.33 219.82
  Q 145.69 220.52 145.21 221.77
  A 1.30 1.29 -72.0 0 0 146.08 223.49
  C 157.37 226.54 168.14 230.80 179.31 234.15
  Q 187.56 236.63 223.35 246.18
  C 224.81 246.57 230.03 249.59 230.87 246.33
  Q 232.47 240.15 234.44 234.40
  Z
  M 544.29 109.75
  Q 544.75 111.60 545.95 112.81
  C 556.02 122.97 561.09 132.40 570.79 147.93
  C 586.74 173.46 598.96 202.43 608.76 231.02
  C 610.33 235.62 611.25 240.25 612.57 244.70
  A 1.91 1.90 82.1 0 0 614.37 246.07
  Q 616.76 246.12 619.25 245.51
  Q 633.55 242.03 649.76 237.64
  C 663.38 233.96 678.80 228.39 690.93 224.18
  Q 693.59 223.26 695.81 221.74
  A 1.51 1.51 0.0 0 0 696.15 219.57
  C 690.27 212.04 683.98 204.87 679.84 200.22
  Q 660.19 178.12 643.36 165.14
  C 638.38 161.30 633.61 157.25 629.97 154.54
  Q 603.69 134.95 573.36 120.39
  C 565.73 116.73 556.86 113.62 549.13 109.87
  Q 546.59 108.65 545.16 108.65
  A 0.89 0.88 -6.8 0 0 544.29 109.75
  Z
  M 709.88 272.04
  Q 676.54 283.97 655.97 288.94
  Q 645.29 291.52 643.31 292.13
  C 637.49 293.93 634.05 294.33 627.93 295.74
  A 1.73 1.73 0.0 0 0 626.63 297.81
  Q 627.18 300.25 630.42 316.77
  Q 633.42 332.09 636.64 355.20
  C 637.31 360.07 637.80 366.22 637.96 370.62
  A 1.18 1.17 -1.7 0 1 636.80 371.84
  Q 622.20 372.00 603.50 371.76
  Q 596.68 371.67 592.30 371.12
  A 3.33 3.33 0.0 0 1 589.81 369.44
  C 588.04 366.24 587.50 361.50 587.15 357.59
  C 586.81 353.79 585.48 350.01 585.34 345.98
  Q 585.29 344.63 584.33 340.58
  Q 583.64 337.66 583.54 334.80
  Q 584.29 326.09 580.40 317.89
  L 576.87 303.19
  A 1.35 1.33 -85.7 0 0 576.09 302.27
  C 573.37 301.12 568.99 302.56 566.25 303.35
  Q 565.38 303.10 565.20 303.43
  Q 544.23 306.32 532.06 307.59
  C 527.75 308.04 522.71 307.87 518.00 308.68
  Q 511.29 309.84 502.82 309.89
  C 499.86 309.90 496.64 310.42 493.60 310.77
  Q 484.26 309.57 474.98 310.11
  C 470.37 310.38 465.80 309.92 462.07 310.08
  Q 449.97 310.60 433.32 311.15
  A 2.86 2.82 34.1 0 0 432.41 311.32
  Q 429.89 312.18 425.82 311.83
  A 3.16 3.09 36.5 0 0 424.45 312.02
  C 422.53 312.75 419.38 311.96 416.69 313.63
  Q 395.16 313.94 382.00 312.92
  Q 367.80 311.82 359.44 311.88
  Q 357.20 311.90 350.56 311.45
  Q 349.26 310.75 347.42 311.44
  L 319.49 309.52
  Q 318.86 309.14 318.02 309.36
  L 296.52 307.52
  Q 296.20 307.26 295.51 307.31
  L 266.59 303.65
  A 1.90 1.88 14.7 0 0 264.62 304.79
  Q 263.63 307.15 263.04 309.52
  Q 262.65 311.06 259.66 327.49
  C 258.50 333.88 258.11 339.53 256.77 345.90
  A 9.24 8.85 -40.2 0 0 256.59 347.59
  Q 256.51 353.21 255.41 357.68
  C 254.39 361.87 254.36 365.39 253.63 370.09
  A 1.46 1.46 0.0 0 1 252.26 371.33
  Q 228.36 372.50 206.97 371.30
  A 1.71 1.71 0.0 0 1 205.36 369.40
  Q 206.38 360.20 206.70 353.17
  C 206.91 348.36 208.00 344.70 208.29 339.59
  Q 208.55 335.13 209.60 329.45
  Q 213.07 310.63 216.34 297.66
  A 1.41 1.41 0.0 0 0 215.30 295.94
  Q 196.31 291.43 178.15 286.52
  Q 162.46 282.27 152.55 278.90
  Q 130.97 271.56 127.29 270.21
  Q 123.99 268.99 119.44 266.84
  Q 117.54 265.95 116.05 266.40
  A 1.49 1.48 4.3 0 0 115.16 267.16
  C 109.57 278.75 106.78 285.93 101.32 300.61
  Q 98.85 307.23 98.06 310.14
  C 95.76 318.60 93.41 325.08 91.17 334.33
  Q 88.28 346.18 86.01 354.02
  Q 85.13 357.06 88.28 358.25
  Q 95.34 360.91 106.36 366.03
  Q 113.85 369.52 116.13 370.40
  C 125.35 373.95 131.60 377.05 141.01 380.27
  Q 148.72 382.90 169.11 390.39
  Q 174.17 392.25 189.76 396.77
  C 194.06 398.02 199.77 399.03 204.69 400.58
  Q 209.07 403.08 212.56 403.42
  Q 219.75 404.11 222.02 404.97
  Q 223.33 405.48 231.20 405.30
  A 9.55 9.14 -39.6 0 1 232.98 405.43
  L 235.27 405.82
  A 3.29 2.96 20.6 0 0 235.73 405.85
  C 243.97 405.57 248.39 405.76 254.84 404.43
  Q 261.16 403.12 265.54 403.07
  A 5.37 5.34 30.2 0 0 268.00 402.43
  Q 270.35 401.15 271.38 400.98
  Q 278.16 399.86 285.14 396.10
  A 1.79 1.18 1.6 0 1 285.35 396.01
  L 295.73 392.20
  A 1.24 0.92 -53.3 0 1 295.93 392.14
  C 300.26 391.43 303.30 388.89 307.30 387.34
  Q 309.84 386.36 315.16 384.10
  Q 315.63 383.89 316.86 383.19
  Q 320.69 380.97 334.17 375.38
  Q 335.56 374.80 337.57 373.73
  Q 340.86 371.97 340.91 371.95
  Q 351.37 367.72 361.05 363.59
  Q 364.03 362.31 374.08 359.54
  A 2.91 2.75 -46.6 0 1 375.30 359.47
  Q 376.18 359.61 377.41 359.48
  Q 383.32 358.86 390.05 358.80
  C 396.18 358.74 402.25 361.18 407.16 363.54
  A 1.92 1.90 45.3 0 0 408.80 363.56
  Q 416.28 360.10 419.26 357.95
  A 1.30 1.22 13.2 0 1 419.52 357.80
  L 434.14 351.55
  A 0.70 0.69 -59.3 0 1 434.37 351.49
  Q 438.50 351.07 441.95 349.49
  A 4.99 4.56 -60.6 0 1 443.02 349.14
  Q 452.51 347.22 461.36 346.55
  Q 463.37 346.39 468.62 346.87
  Q 472.34 347.22 475.94 346.83
  Q 486.29 349.37 496.22 354.27
  Q 527.47 369.71 558.42 385.43
  Q 564.23 389.85 571.05 392.91
  Q 575.78 395.04 579.55 397.05
  Q 584.73 399.80 588.13 400.93
  Q 597.67 404.10 608.74 406.69
  A 6.19 6.18 51.7 0 0 610.18 406.86
  L 623.06 406.86
  A 1.74 1.52 32.9 0 0 623.54 406.79
  Q 629.21 405.11 636.98 404.67
  A 3.62 3.47 -54.3 0 0 637.96 404.49
  Q 639.44 404.02 642.64 403.17
  Q 646.79 402.08 647.84 401.91
  Q 653.13 401.09 663.18 397.72
  C 664.52 397.27 667.26 396.97 668.94 396.24
  Q 673.05 394.45 678.55 392.89
  C 683.81 391.40 688.17 389.08 692.55 387.88
  C 694.62 387.32 698.22 385.23 699.74 384.30
  A 5.02 4.83 21.7 0 1 701.16 383.72
  Q 704.08 383.03 706.19 381.93
  Q 709.55 380.17 710.90 379.70
  C 717.33 377.43 723.55 373.40 729.71 370.56
  Q 735.06 368.10 737.54 366.47
  Q 740.60 364.46 742.85 363.59
  Q 743.34 363.40 748.70 360.70
  A 1.61 1.38 4.4 0 0 749.07 360.43
  L 750.51 358.92
  A 0.49 0.48 11.9 0 1 750.73 358.78
  Q 753.33 357.85 756.64 355.16
  A 1.75 1.74 -13.4 0 0 757.26 354.16
  Q 758.00 350.90 757.43 348.77
  Q 754.75 338.75 754.80 335.37
  A 3.88 3.84 -59.8 0 0 754.30 333.43
  Q 753.52 332.02 751.95 325.26
  Q 749.70 315.60 745.93 307.53
  C 743.98 303.36 742.90 299.26 741.05 295.72
  A 10.90 10.55 -66.5 0 1 740.14 293.30
  C 738.98 288.53 736.76 284.49 735.02 279.90
  Q 732.96 274.48 729.30 268.62
  Q 728.35 267.09 726.55 266.30
  Q 725.17 265.69 723.00 266.31
  Q 716.06 268.26 709.88 272.04
  Z
  M 763.55 385.78
  C 762.72 385.76 761.73 385.94 761.00 386.40
  Q 757.64 388.50 755.38 389.62
  Q 737.44 398.51 714.37 409.11
  Q 703.90 413.92 683.92 421.14
  Q 649.70 433.51 617.24 433.54
  C 604.17 433.56 592.38 431.72 580.95 427.13
  C 559.25 418.43 536.58 406.42 517.42 396.37
  Q 497.73 386.04 485.70 380.57
  C 478.69 377.38 470.14 373.80 461.49 373.78
  Q 451.05 373.77 448.85 374.33
  Q 439.85 376.65 430.56 381.80
  Q 417.34 389.13 410.27 394.51
  Q 399.26 402.91 390.93 409.83
  C 373.46 424.34 357.42 436.87 339.02 451.54
  C 337.06 453.10 333.86 455.98 333.12 458.34
  C 332.07 461.66 332.15 468.09 334.88 471.20
  C 340.73 477.86 351.85 479.52 360.35 479.08
  Q 373.51 478.39 384.49 475.24
  Q 403.00 469.93 421.73 460.09
  C 427.69 456.96 434.51 452.25 439.79 449.55
  C 447.08 445.83 452.19 448.13 458.08 452.93
  Q 459.73 454.27 466.40 459.56
  Q 478.95 469.52 505.92 491.33
  Q 523.50 505.55 598.30 564.78
  Q 601.15 567.03 604.33 569.37
  A 3.80 3.79 -37.8 0 0 608.01 569.83
  Q 610.27 568.92 613.38 567.38
  Q 614.75 566.71 643.27 555.76
  C 668.89 545.93 695.42 535.02 719.62 525.11
  C 730.05 520.84 737.07 518.46 748.27 514.05
  C 753.12 512.14 754.08 507.58 755.36 502.62
  Q 760.94 480.82 762.92 464.49
  C 764.11 454.64 765.13 448.52 765.45 440.55
  Q 766.57 412.35 764.22 386.41
  A 0.70 0.70 0.0 0 0 763.55 385.78
  Z
  M 84.52 390.25
  A 0.79 0.78 17.3 0 0 83.37 390.85
  C 82.09 402.24 82.34 409.18 82.31 425.35
  Q 82.28 437.16 83.40 448.13
  Q 85.22 466.02 87.50 479.48
  C 89.05 488.59 92.05 499.91 93.37 507.36
  Q 94.48 513.67 100.84 516.17
  C 122.68 524.75 140.35 531.38 160.32 539.77
  Q 170.44 544.01 183.14 548.22
  A 2.27 2.27 0.0 0 0 185.77 547.26
  C 198.53 526.57 224.60 515.50 246.22 531.18
  Q 256.10 538.34 260.69 549.29
  A 1.41 1.41 0.0 0 0 262.73 549.94
  Q 282.92 537.42 302.59 550.31
  C 313.64 557.55 318.32 567.61 320.03 580.34
  A 2.08 2.08 0.0 0 0 322.42 582.12
  C 333.02 580.43 344.09 585.57 351.65 592.69
  C 358.59 599.24 364.30 612.90 361.26 622.71
  A 1.06 1.06 0.0 0 0 362.27 624.09
  C 367.92 624.09 370.97 623.67 375.18 624.94
  Q 382.94 627.27 388.69 631.87
  C 398.99 640.11 408.70 649.08 418.76 656.75
  Q 440.19 673.08 461.43 689.18
  C 468.38 694.45 472.90 698.42 479.30 702.50
  Q 486.90 707.34 495.77 706.36
  Q 501.66 705.72 505.62 700.87
  C 507.90 698.08 510.34 693.44 508.65 690.15
  Q 505.69 684.36 500.23 680.09
  Q 456.28 645.74 430.83 626.77
  Q 426.93 623.86 425.68 621.56
  C 422.66 615.99 426.22 609.78 430.34 605.59
  C 433.73 602.14 437.04 601.47 441.57 603.64
  C 447.30 606.39 453.59 610.80 457.51 613.98
  Q 461.20 616.97 487.13 636.65
  Q 499.25 645.85 512.02 655.48
  C 518.90 660.67 527.59 668.34 534.63 672.92
  C 538.72 675.59 542.15 677.10 546.90 675.40
  Q 554.44 672.70 558.02 666.67
  C 561.28 661.19 560.61 654.42 555.62 650.46
  Q 539.22 637.45 482.93 593.65
  Q 474.00 586.71 470.09 582.93
  Q 466.20 579.19 465.38 576.61
  C 463.48 570.60 467.88 565.39 472.59 561.80
  Q 477.26 558.24 482.29 561.45
  Q 486.85 564.35 494.96 570.80
  C 512.74 584.94 543.41 608.05 567.45 626.87
  Q 574.63 632.49 580.83 635.20
  C 585.90 637.42 593.05 633.32 596.67 629.90
  Q 605.78 621.29 602.76 608.99
  Q 600.15 598.33 591.37 591.87
  Q 587.93 589.33 584.91 586.83
  Q 569.62 574.13 534.76 546.73
  Q 519.84 535.01 514.30 530.74
  C 505.89 524.25 497.66 517.24 490.33 511.43
  Q 470.09 495.35 445.81 476.52
  A 1.59 1.58 -41.9 0 0 444.02 476.43
  C 432.31 483.64 421.53 488.05 406.52 493.96
  Q 391.90 499.73 373.36 503.15
  C 362.60 505.13 353.23 503.62 342.97 502.04
  Q 340.96 501.73 333.79 498.72
  C 321.16 493.39 311.29 484.48 308.00 470.97
  Q 303.25 451.41 317.92 438.42
  C 323.64 433.36 328.57 428.86 334.50 424.04
  Q 366.54 398.01 379.67 387.57
  A 0.92 0.91 -62.2 0 0 379.17 385.94
  Q 377.42 385.81 375.43 386.43
  Q 362.38 390.48 348.85 397.38
  C 329.72 407.12 311.46 414.77 291.07 423.28
  Q 267.93 432.94 242.69 433.94
  Q 233.26 434.31 220.39 432.75
  Q 207.81 431.23 198.32 429.17
  C 179.12 425.02 161.06 419.01 140.27 412.24
  C 123.59 406.81 108.30 400.45 92.51 393.99
  Q 88.36 392.29 84.52 390.25
  Z
  M 201.21 593.35
  C 205.49 596.10 208.77 597.16 213.49 595.24
  Q 219.72 592.70 223.59 587.84
  Q 228.46 581.71 233.99 574.76
  C 239.55 567.76 241.14 557.55 233.48 551.29
  C 220.34 540.55 202.85 560.71 197.01 570.69
  C 192.59 578.24 193.36 588.29 201.21 593.35
  Z
  M 343.54 740.31
  L 338.96 740.27
  C 333.70 740.89 330.47 739.27 325.10 737.62
  C 312.14 733.65 301.43 721.07 298.10 708.14
  A 2.94 2.94 0.0 0 0 295.18 705.93
  Q 288.54 706.09 286.58 706.09
  Q 281.15 706.10 274.56 703.87
  Q 252.91 696.55 247.20 674.06
  Q 246.53 671.44 246.65 668.36
  A 2.04 2.03 -81.9 0 0 245.11 666.31
  Q 239.38 664.89 234.85 663.38
  Q 211.93 655.73 206.96 632.46
  C 206.36 629.61 206.59 627.09 206.62 624.37
  A 2.16 2.15 -87.3 0 0 204.64 622.19
  C 202.66 622.03 200.09 621.94 197.34 621.06
  Q 188.31 618.15 181.87 610.89
  Q 175.09 603.25 172.63 594.19
  Q 170.11 584.92 170.75 574.90
  A 2.12 2.12 0.0 0 0 169.30 572.76
  Q 147.62 565.55 114.81 552.30
  Q 112.54 551.39 109.35 550.83
  A 1.44 1.43 -3.5 0 0 107.73 552.66
  Q 108.41 554.86 109.26 556.50
  C 112.90 563.48 116.78 572.09 120.34 578.46
  Q 137.96 610.02 160.27 637.43
  C 169.26 648.47 181.54 660.90 191.14 670.11
  Q 212.94 691.03 240.23 708.35
  C 245.57 712.93 252.06 716.40 257.56 720.30
  C 261.57 723.15 266.85 724.77 271.64 727.57
  Q 281.99 733.60 285.45 735.05
  Q 303.48 742.59 305.21 743.45
  A 1.37 1.31 54.8 0 0 305.92 743.59
  Q 306.48 743.55 308.51 743.97
  Q 309.67 744.21 314.32 745.88
  Q 316.09 746.51 320.24 747.44
  Q 322.36 747.91 326.97 749.90
  A 0.97 0.77 -24.9 0 0 327.30 749.98
  L 335.14 750.72
  A 3.50 3.45 -25.9 0 1 336.62 751.22
  Q 339.18 752.83 343.00 753.07
  A 3.47 3.30 55.2 0 1 343.92 753.26
  Q 348.29 754.91 353.18 754.83
  A 1.71 1.36 -33.0 0 1 353.49 754.86
  L 360.34 756.57
  A 2.31 2.30 48.8 0 0 361.19 756.63
  C 362.99 756.44 364.12 756.22 365.99 756.52
  Q 371.33 757.37 372.88 757.45
  Q 373.04 757.46 379.71 758.74
  Q 388.93 760.50 398.06 758.79
  L 422.48 759.60
  C 426.59 761.15 430.02 761.05 434.49 760.76
  C 440.12 760.38 445.97 761.18 450.92 760.49
  Q 456.32 759.73 463.76 758.16
  C 469.23 757.00 473.83 756.97 478.89 756.87
  A 4.50 4.29 36.1 0 0 479.87 756.74
  C 484.04 755.67 487.22 755.65 490.81 754.38
  Q 491.34 754.19 498.40 752.33
  C 503.55 750.97 508.18 750.57 513.84 748.39
  C 518.03 746.77 523.31 746.70 527.80 744.74
  Q 530.05 743.77 532.81 743.13
  Q 534.44 742.75 542.21 740.68
  Q 546.82 739.46 551.31 737.39
  Q 563.58 731.76 564.22 731.44
  C 570.13 728.48 575.02 725.85 580.76 723.76
  A 7.26 7.08 16.3 0 0 582.47 722.85
  C 586.82 719.74 592.09 717.54 596.98 714.32
  Q 604.44 709.40 609.00 706.90
  Q 614.44 703.92 620.79 699.21
  Q 631.91 690.96 637.08 686.56
  Q 640.19 683.92 641.93 682.66
  Q 647.45 678.67 654.94 670.68
  C 657.44 668.01 660.12 666.17 662.52 663.31
  Q 663.48 662.17 668.00 657.71
  Q 674.30 651.51 682.75 642.31
  C 687.09 637.59 690.18 632.20 693.79 628.24
  Q 697.66 623.98 702.01 617.65
  C 708.41 608.32 711.77 603.65 715.54 596.70
  Q 717.44 593.20 719.38 590.17
  Q 722.51 585.27 723.28 583.10
  Q 724.22 580.47 725.21 579.64
  A 1.25 1.23 83.2 0 0 725.55 579.20
  Q 730.42 569.13 731.18 567.85
  Q 733.25 564.37 734.39 560.05
  A 2.77 2.66 -20.3 0 1 734.81 559.18
  Q 736.36 557.14 736.02 555.13
  Q 737.42 554.06 738.02 551.62
  A 1.79 1.78 14.1 0 0 736.72 549.47
  Q 735.95 549.27 734.79 549.78
  C 714.78 558.55 693.63 566.63 674.11 574.67
  Q 661.55 579.84 654.65 582.39
  C 642.98 586.70 635.48 589.96 626.17 592.76
  A 1.62 1.61 70.9 0 0 625.13 594.91
  C 627.12 599.90 628.51 603.45 629.10 608.68
  C 631.01 625.60 624.69 643.57 609.95 653.17
  Q 600.73 659.18 590.78 660.82
  Q 587.08 661.43 586.10 663.08
  A 3.18 3.16 68.0 0 0 585.72 663.98
  Q 583.86 671.13 583.81 671.29
  C 579.92 683.35 572.38 691.07 561.60 697.30
  C 554.90 701.19 547.15 702.21 539.04 702.82
  C 537.12 702.96 535.74 703.49 534.93 705.41
  C 533.50 708.82 531.97 712.31 530.23 714.90
  C 521.30 728.12 505.22 735.37 489.42 733.80
  Q 480.24 732.88 471.61 729.34
  Q 468.88 728.23 466.89 730.61
  Q 463.57 734.58 461.60 737.18
  C 447.90 755.24 423.68 757.72 404.17 749.34
  Q 391.10 743.73 376.39 731.58
  Q 376.33 731.54 376.27 731.50
  L 372.60 729.19
  A 1.53 1.52 43.7 0 0 370.93 729.22
  C 363.14 734.52 353.46 740.40 343.54 740.31
  Z
  M 288.30 598.59
  C 294.53 591.73 297.79 580.78 290.69 573.33
  C 286.52 568.95 277.67 569.10 272.99 571.70
  C 261.52 578.06 253.87 588.95 244.91 598.94
  Q 235.83 609.05 233.91 611.75
  C 229.02 618.62 229.16 628.25 235.81 634.33
  C 241.29 639.34 247.95 639.51 254.10 635.56
  Q 257.84 633.15 258.36 632.61
  Q 259.96 630.97 278.15 610.14
  Q 286.80 600.24 288.30 598.59
  Z
  M 331.11 637.68
  C 337.69 628.44 343.61 618.04 332.53 608.78
  Q 328.87 605.73 324.54 605.84
  C 317.92 606.01 314.49 607.43 309.43 612.39
  Q 302.06 619.60 297.07 625.70
  Q 290.06 634.24 287.66 636.55
  C 282.89 641.14 277.18 647.14 272.86 653.12
  Q 270.86 655.89 270.61 658.22
  Q 269.03 672.60 281.47 677.71
  C 291.20 681.71 301.91 673.88 308.19 666.90
  C 316.30 657.90 323.89 647.82 331.11 637.68
  Z
  M 320.77 695.78
  C 321.41 704.14 327.64 711.10 335.47 713.03
  C 348.83 716.32 366.05 692.86 372.41 683.86
  Q 377.44 676.72 378.66 674.34
  C 380.79 670.17 383.59 662.65 381.35 658.66
  C 375.85 648.87 362.43 643.71 353.67 652.17
  Q 345.87 659.70 340.33 666.51
  Q 335.31 672.66 334.11 673.92
  C 330.07 678.12 325.40 683.32 322.78 688.77
  Q 320.58 693.32 320.77 695.78
  Z
  M 403.81 678.71
  A 1.06 1.06 0.0 0 0 402.21 679.33
  Q 398.40 693.65 388.46 704.38
  A 1.21 1.20 41.3 0 0 388.58 706.13
  Q 398.13 714.12 407.86 720.89
  C 414.71 725.65 424.46 731.67 432.62 728.17
  Q 439.60 725.18 443.74 717.76
  C 446.64 712.58 444.23 708.47 440.00 705.26
  Q 426.34 694.89 409.03 682.88
  C 407.04 681.50 405.47 679.79 403.81 678.71
  Z"
/>
<path fill="#000206" d="
  M 496.97 37.68
  Q 496.30 37.98 495.96 37.57
  L 496.97 37.68
  Z"
/>
<path fill="#000206" d="
  M 443.00 96.38
  L 443.86 234.89
  Q 442.25 228.30 442.19 226.51
  Q 441.80 212.53 441.86 198.50
  Q 441.97 175.40 441.97 173.25
  Q 441.96 169.83 441.59 157.56
  Q 441.02 138.82 442.05 131.42
  Q 443.03 124.37 442.59 119.11
  Q 442.10 113.27 442.17 110.38
  Q 442.32 103.42 443.00 96.38
  Z"
/>
<path fill="#000206" d="
  M 398.22 235.77
  L 398.27 113.90
  Q 399.90 124.22 399.33 134.72
  C 398.95 141.71 399.35 151.01 399.36 155.77
  Q 399.38 162.74 399.35 193.28
  C 399.35 198.02 398.95 207.23 399.33 214.25
  Q 399.91 225.10 398.22 235.77
  Z"
/>
<path fill="#000206" d="
  M 297.62 114.32
  Q 295.14 118.07 292.73 121.62
  Q 291.14 123.97 287.44 128.62
  Q 282.10 135.35 278.58 141.10
  Q 277.56 142.77 277.38 143.33
  A 5.59 5.16 75.6 0 1 276.40 145.15
  Q 274.38 147.63 273.83 148.84
  Q 271.21 154.64 268.68 158.69
  C 265.41 163.90 263.81 168.09 260.92 173.70
  A 4.96 4.81 66.7 0 0 260.52 174.75
  Q 260.06 176.58 258.73 178.19
  A 4.14 4.05 -15.0 0 0 258.11 179.24
  Q 256.98 182.01 254.98 184.83
  A 3.37 3.29 -17.8 0 0 254.62 185.51
  Q 252.60 190.73 250.84 194.16
  Q 248.63 198.45 246.93 202.77
  Q 240.74 218.53 234.44 234.40
  Q 243.97 201.95 259.31 171.97
  Q 263.06 164.64 267.38 157.52
  C 271.12 151.35 274.64 144.69 278.74 138.58
  Q 279.27 137.80 293.12 118.61
  Q 295.37 115.50 297.62 114.32
  Z"
/>
<path fill="#000206" d="
  M 558.42 385.43
  Q 576.94 394.63 588.39 399.34
  Q 598.00 403.30 611.65 405.45
  A 12.63 12.56 45.2 0 0 615.45 405.47
  C 623.74 404.23 631.74 403.82 639.56 402.17
  C 647.87 400.40 653.61 399.50 660.48 397.34
  Q 698.19 385.52 734.35 366.56
  Q 742.90 362.08 756.14 354.54
  A 1.86 1.86 0.0 0 0 757.03 352.52
  Q 748.00 312.48 730.55 274.44
  Q 729.39 271.92 726.95 267.56
  A 2.01 2.01 0.0 0 0 724.49 266.65
  L 709.88 272.04
  Q 716.06 268.26 723.00 266.31
  Q 725.17 265.69 726.55 266.30
  Q 728.35 267.09 729.30 268.62
  Q 732.96 274.48 735.02 279.90
  C 736.76 284.49 738.98 288.53 740.14 293.30
  A 10.90 10.55 -66.5 0 0 741.05 295.72
  C 742.90 299.26 743.98 303.36 745.93 307.53
  Q 749.70 315.60 751.95 325.26
  Q 753.52 332.02 754.30 333.43
  A 3.88 3.84 -59.8 0 1 754.80 335.37
  Q 754.75 338.75 757.43 348.77
  Q 758.00 350.90 757.26 354.16
  A 1.75 1.74 -13.4 0 1 756.64 355.16
  Q 753.33 357.85 750.73 358.78
  A 0.49 0.48 11.9 0 0 750.51 358.92
  L 749.07 360.43
  A 1.61 1.38 4.4 0 1 748.70 360.70
  Q 743.34 363.40 742.85 363.59
  Q 740.60 364.46 737.54 366.47
  Q 735.06 368.10 729.71 370.56
  C 723.55 373.40 717.33 377.43 710.90 379.70
  Q 709.55 380.17 706.19 381.93
  Q 704.08 383.03 701.16 383.72
  A 5.02 4.83 21.7 0 0 699.74 384.30
  C 698.22 385.23 694.62 387.32 692.55 387.88
  C 688.17 389.08 683.81 391.40 678.55 392.89
  Q 673.05 394.45 668.94 396.24
  C 667.26 396.97 664.52 397.27 663.18 397.72
  Q 653.13 401.09 647.84 401.91
  Q 646.79 402.08 642.64 403.17
  Q 639.44 404.02 637.96 404.49
  A 3.62 3.47 -54.3 0 1 636.98 404.67
  Q 629.21 405.11 623.54 406.79
  A 1.74 1.52 32.9 0 1 623.06 406.86
  L 610.18 406.86
  A 6.19 6.18 51.7 0 1 608.74 406.69
  Q 597.67 404.10 588.13 400.93
  Q 584.73 399.80 579.55 397.05
  Q 575.78 395.04 571.05 392.91
  Q 564.23 389.85 558.42 385.43
  Z"
/>
<path fill="#000206" d="
  M 566.25 303.35
  L 565.20 303.43
  Q 565.38 303.10 566.25 303.35
  Z"
/>
<path fill="#000206" d="
  M 296.52 307.52
  L 295.51 307.31
  Q 296.20 307.26 296.52 307.52
  Z"
/>
<path fill="#000206" d="
  M 319.49 309.52
  Q 318.79 309.32 318.02 309.36
  Q 318.86 309.14 319.49 309.52
  Z"
/>
<path fill="#000206" d="
  M 493.60 310.77
  Q 488.69 311.59 483.75 311.69
  Q 470.62 311.96 457.51 312.66
  Q 437.15 313.75 416.69 313.63
  C 419.38 311.96 422.53 312.75 424.45 312.02
  A 3.16 3.09 36.5 0 1 425.82 311.83
  Q 429.89 312.18 432.41 311.32
  A 2.86 2.82 34.1 0 1 433.32 311.15
  Q 449.97 310.60 462.07 310.08
  C 465.80 309.92 470.37 310.38 474.98 310.11
  Q 484.26 309.57 493.60 310.77
  Z"
/>
<path fill="#000206" d="
  M 350.56 311.45
  L 347.42 311.44
  Q 349.26 310.75 350.56 311.45
  Z"
/>
<path fill="#000206" d="
  M 821.00 413.70
  L 819.55 408.08
  A 4.51 3.76 52.4 0 1 819.45 407.48
  L 818.20 395.58
  A 1.80 1.51 51.4 0 1 818.21 395.17
  Q 819.07 390.60 818.45 385.28
  Q 817.76 379.30 816.27 370.48
  Q 815.80 367.72 815.89 365.00
  C 815.96 362.75 814.93 360.38 814.58 357.80
  Q 813.57 350.53 813.05 349.26
  C 811.87 346.43 812.01 344.31 811.44 341.44
  Q 810.35 335.89 809.80 332.29
  Q 809.73 331.84 808.47 328.78
  A 2.19 2.01 -61.0 0 1 808.35 328.28
  L 807.28 317.67
  C 809.99 328.11 812.77 338.85 814.38 349.28
  Q 815.98 359.68 816.63 362.90
  Q 817.74 368.43 817.96 372.68
  C 818.17 376.79 819.41 381.18 819.57 385.75
  Q 819.69 388.95 819.87 393.44
  C 820.08 398.58 821.11 406.88 821.00 413.70
  Z"
/>
<path fill="#000206" d="
  M 583.54 334.80
  L 580.40 317.89
  Q 584.29 326.09 583.54 334.80
  Z"
/>
<path fill="#000206" d="
  M 475.94 346.83
  Q 472.34 347.22 468.62 346.87
  Q 463.37 346.39 461.36 346.55
  Q 452.51 347.22 443.02 349.14
  A 4.99 4.56 -60.6 0 0 441.95 349.49
  Q 438.50 351.07 434.37 351.49
  A 0.70 0.69 -59.3 0 0 434.14 351.55
  L 419.52 357.80
  A 1.30 1.22 13.2 0 0 419.26 357.95
  Q 416.28 360.10 408.80 363.56
  A 1.92 1.90 45.3 0 1 407.16 363.54
  C 402.25 361.18 396.18 358.74 390.05 358.80
  Q 383.32 358.86 377.41 359.48
  Q 376.18 359.61 375.30 359.47
  A 2.91 2.75 -46.6 0 0 374.08 359.54
  Q 364.03 362.31 361.05 363.59
  Q 351.37 367.72 340.91 371.95
  Q 340.86 371.97 337.57 373.73
  Q 335.56 374.80 334.17 375.38
  Q 320.69 380.97 316.86 383.19
  Q 315.63 383.89 315.16 384.10
  Q 309.84 386.36 307.30 387.34
  C 303.30 388.89 300.26 391.43 295.93 392.14
  A 1.24 0.92 -53.3 0 0 295.73 392.20
  L 285.35 396.01
  A 1.79 1.18 1.6 0 0 285.14 396.10
  Q 278.16 399.86 271.38 400.98
  Q 270.35 401.15 268.00 402.43
  A 5.37 5.34 30.2 0 1 265.54 403.07
  Q 261.16 403.12 254.84 404.43
  C 248.39 405.76 243.97 405.57 235.73 405.85
  A 3.29 2.96 20.6 0 1 235.27 405.82
  L 232.98 405.43
  A 9.55 9.14 -39.6 0 0 231.20 405.30
  Q 223.33 405.48 222.02 404.97
  Q 219.75 404.11 212.56 403.42
  Q 209.07 403.08 204.69 400.58
  C 220.84 403.98 237.05 405.88 253.35 403.53
  C 258.31 402.82 266.93 400.92 273.29 398.90
  Q 291.80 393.02 304.06 387.56
  Q 320.06 380.43 354.31 365.05
  Q 360.58 362.23 374.57 358.76
  Q 378.79 357.71 382.49 357.78
  C 388.76 357.89 393.73 357.24 398.91 358.79
  Q 403.61 360.19 406.85 361.85
  Q 408.57 362.72 410.48 361.46
  Q 413.35 359.56 424.17 354.17
  Q 431.92 350.31 438.54 348.43
  Q 456.67 343.27 475.94 346.83
  Z"
/>
<path fill="#ff8a0a" d="
  M 763.55 385.78
  A 0.70 0.70 0.0 0 1 764.22 386.41
  Q 766.57 412.35 765.45 440.55
  C 765.13 448.52 764.11 454.64 762.92 464.49
  Q 760.94 480.82 755.36 502.62
  C 754.08 507.58 753.12 512.14 748.27 514.05
  C 737.07 518.46 730.05 520.84 719.62 525.11
  C 695.42 535.02 668.89 545.93 643.27 555.76
  Q 614.75 566.71 613.38 567.38
  Q 610.27 568.92 608.01 569.83
  A 3.80 3.79 -37.8 0 1 604.33 569.37
  Q 601.15 567.03 598.30 564.78
  Q 523.50 505.55 505.92 491.33
  Q 478.95 469.52 466.40 459.56
  Q 459.73 454.27 458.08 452.93
  C 452.19 448.13 447.08 445.83 439.79 449.55
  C 434.51 452.25 427.69 456.96 421.73 460.09
  Q 403.00 469.93 384.49 475.24
  Q 373.51 478.39 360.35 479.08
  C 351.85 479.52 340.73 477.86 334.88 471.20
  C 332.15 468.09 332.07 461.66 333.12 458.34
  C 333.86 455.98 337.06 453.10 339.02 451.54
  C 357.42 436.87 373.46 424.34 390.93 409.83
  Q 399.26 402.91 410.27 394.51
  Q 417.34 389.13 430.56 381.80
  Q 439.85 376.65 448.85 374.33
  Q 451.05 373.77 461.49 373.78
  C 470.14 373.80 478.69 377.38 485.70 380.57
  Q 497.73 386.04 517.42 396.37
  C 536.58 406.42 559.25 418.43 580.95 427.13
  C 592.38 431.72 604.17 433.56 617.24 433.54
  Q 649.70 433.51 683.92 421.14
  Q 703.90 413.92 714.37 409.11
  Q 737.44 398.51 755.38 389.62
  Q 757.64 388.50 761.00 386.40
  C 761.73 385.94 762.72 385.76 763.55 385.78
  Z"
/>
<path fill="#ff8a0a" d="
  M 84.52 390.25
  Q 88.36 392.29 92.51 393.99
  C 108.30 400.45 123.59 406.81 140.27 412.24
  C 161.06 419.01 179.12 425.02 198.32 429.17
  Q 207.81 431.23 220.39 432.75
  Q 233.26 434.31 242.69 433.94
  Q 267.93 432.94 291.07 423.28
  C 311.46 414.77 329.72 407.12 348.85 397.38
  Q 362.38 390.48 375.43 386.43
  Q 377.42 385.81 379.17 385.94
  A 0.92 0.91 -62.2 0 1 379.67 387.57
  Q 366.54 398.01 334.50 424.04
  C 328.57 428.86 323.64 433.36 317.92 438.42
  Q 303.25 451.41 308.00 470.97
  C 311.29 484.48 321.16 493.39 333.79 498.72
  Q 340.96 501.73 342.97 502.04
  C 353.23 503.62 362.60 505.13 373.36 503.15
  Q 391.90 499.73 406.52 493.96
  C 421.53 488.05 432.31 483.64 444.02 476.43
  A 1.59 1.58 -41.9 0 1 445.81 476.52
  Q 470.09 495.35 490.33 511.43
  C 497.66 517.24 505.89 524.25 514.30 530.74
  Q 519.84 535.01 534.76 546.73
  Q 569.62 574.13 584.91 586.83
  Q 587.93 589.33 591.37 591.87
  Q 600.15 598.33 602.76 608.99
  Q 605.78 621.29 596.67 629.90
  C 593.05 633.32 585.90 637.42 580.83 635.20
  Q 574.63 632.49 567.45 626.87
  C 543.41 608.05 512.74 584.94 494.96 570.80
  Q 486.85 564.35 482.29 561.45
  Q 477.26 558.24 472.59 561.80
  C 467.88 565.39 463.48 570.60 465.38 576.61
  Q 466.20 579.19 470.09 582.93
  Q 474.00 586.71 482.93 593.65
  Q 539.22 637.45 555.62 650.46
  C 560.61 654.42 561.28 661.19 558.02 666.67
  Q 554.44 672.70 546.90 675.40
  C 542.15 677.10 538.72 675.59 534.63 672.92
  C 527.59 668.34 518.90 660.67 512.02 655.48
  Q 499.25 645.85 487.13 636.65
  Q 461.20 616.97 457.51 613.98
  C 453.59 610.80 447.30 606.39 441.57 603.64
  C 437.04 601.47 433.73 602.14 430.34 605.59
  C 426.22 609.78 422.66 615.99 425.68 621.56
  Q 426.93 623.86 430.83 626.77
  Q 456.28 645.74 500.23 680.09
  Q 505.69 684.36 508.65 690.15
  C 510.34 693.44 507.90 698.08 505.62 700.87
  Q 501.66 705.72 495.77 706.36
  Q 486.90 707.34 479.30 702.50
  C 472.90 698.42 468.38 694.45 461.43 689.18
  Q 440.19 673.08 418.76 656.75
  C 408.70 649.08 398.99 640.11 388.69 631.87
  Q 382.94 627.27 375.18 624.94
  C 370.97 623.67 367.92 624.09 362.27 624.09
  A 1.06 1.06 0.0 0 1 361.26 622.71
  C 364.30 612.90 358.59 599.24 351.65 592.69
  C 344.09 585.57 333.02 580.43 322.42 582.12
  A 2.08 2.08 0.0 0 1 320.03 580.34
  C 318.32 567.61 313.64 557.55 302.59 550.31
  Q 282.92 537.42 262.73 549.94
  A 1.41 1.41 0.0 0 1 260.69 549.29
  Q 256.10 538.34 246.22 531.18
  C 224.60 515.50 198.53 526.57 185.77 547.26
  A 2.27 2.27 0.0 0 1 183.14 548.22
  Q 170.44 544.01 160.32 539.77
  C 140.35 531.38 122.68 524.75 100.84 516.17
  Q 94.48 513.67 93.37 507.36
  C 92.05 499.91 89.05 488.59 87.50 479.48
  Q 85.22 466.02 83.40 448.13
  Q 82.28 437.16 82.31 425.35
  C 82.34 409.18 82.09 402.24 83.37 390.85
  A 0.79 0.78 17.3 0 1 84.52 390.25
  Z"
/>
<path fill="#000206" d="
  M 821.15 415.05
  Q 820.89 414.77 821.05 413.96
  L 821.15 415.05
  Z"
/>
<path fill="#000206" d="
  M 821.00 441.54
  Q 819.95 450.93 819.63 460.37
  C 819.46 465.73 818.06 470.28 817.94 474.80
  Q 817.86 478.06 816.72 483.66
  Q 816.71 483.71 815.26 492.51
  Q 813.83 501.13 810.25 515.17
  Q 808.92 511.98 809.60 509.49
  Q 812.74 497.92 813.52 493.34
  Q 815.16 483.61 815.50 482.80
  A 3.91 3.88 -31.3 0 0 815.81 481.55
  Q 816.36 474.78 816.98 470.62
  Q 817.36 468.02 817.66 460.32
  Q 818.04 450.74 821.00 441.54
  Z"
/>
<path fill="#000206" d="
  M 383.78 812.40
  Q 375.32 812.44 366.99 811.07
  C 362.85 810.39 358.81 810.50 355.49 809.78
  Q 343.49 807.17 334.44 805.60
  Q 323.82 803.77 314.31 800.99
  Q 292.59 794.66 289.97 793.77
  Q 287.35 792.89 269.47 785.86
  Q 259.26 781.84 249.32 777.07
  Q 204.44 755.53 165.63 722.39
  Q 148.23 707.54 135.04 693.49
  Q 121.67 679.25 105.50 658.51
  Q 75.15 619.58 55.01 573.53
  Q 42.54 545.02 34.73 513.10
  Q 32.09 502.27 29.12 483.85
  Q 28.70 481.23 27.97 474.94
  C 27.44 470.29 26.13 465.86 26.40 461.50
  Q 27.57 465.47 28.70 469.15
  C 29.46 471.61 29.76 474.12 29.88 476.15
  A 3.55 3.44 34.6 0 0 30.06 477.05
  Q 31.13 480.01 30.84 483.05
  A 2.50 2.39 43.7 0 0 30.87 483.71
  L 34.52 504.30
  A 6.36 6.32 28.4 0 0 34.95 505.73
  Q 36.62 509.61 37.27 513.15
  Q 38.12 517.84 38.79 520.26
  Q 40.67 527.10 40.70 527.28
  C 41.33 531.61 43.39 535.21 44.45 539.48
  C 45.46 543.56 47.35 547.46 48.49 551.85
  Q 49.17 554.46 50.17 556.73
  Q 52.33 561.66 54.75 568.19
  Q 57.38 575.28 59.54 579.52
  Q 61.72 583.81 67.06 594.67
  Q 68.25 597.10 69.60 599.21
  C 70.88 601.20 71.63 603.77 72.61 605.51
  Q 73.52 607.12 75.29 610.53
  Q 76.36 612.62 78.31 615.34
  Q 80.81 618.84 88.36 630.50
  Q 88.58 630.83 89.57 631.79
  A 4.38 4.33 7.8 0 1 90.37 632.83
  Q 93.37 638.33 97.87 643.90
  A 7.04 6.77 -78.9 0 1 98.57 644.99
  C 100.05 647.85 102.51 650.29 104.29 652.78
  Q 107.41 657.14 108.24 657.91
  Q 111.47 660.90 113.92 663.94
  Q 119.65 671.06 121.98 674.84
  A 9.18 9.12 -85.7 0 0 123.91 677.10
  C 127.30 679.99 130.83 685.29 134.34 688.94
  C 136.71 691.40 140.92 696.00 144.57 699.16
  C 147.58 701.77 150.01 705.09 152.93 707.41
  C 154.90 708.98 158.06 711.52 160.45 714.13
  Q 166.16 720.38 172.44 725.33
  Q 175.40 727.67 176.32 728.52
  C 182.65 734.34 190.04 738.36 196.73 743.50
  Q 199.28 745.46 200.61 746.21
  C 202.76 747.43 204.12 748.70 206.18 749.56
  Q 208.78 750.65 210.89 752.46
  C 214.15 755.25 216.72 756.29 220.64 758.70
  C 223.63 760.54 225.85 762.59 229.10 763.63
  C 230.49 764.08 231.63 765.40 233.08 765.85
  Q 237.24 767.14 240.32 769.84
  A 6.27 6.25 76.9 0 0 242.06 770.93
  C 246.07 772.60 252.15 775.61 257.29 778.55
  Q 263.25 781.96 270.52 783.02
  Q 271.09 783.10 273.75 784.62
  C 276.36 786.10 279.18 786.47 281.49 787.90
  C 284.73 789.89 287.26 790.05 290.22 791.63
  Q 290.96 792.03 293.83 792.86
  Q 304.10 795.83 309.75 798.05
  C 314.51 799.91 318.82 800.55 323.23 802.18
  A 8.31 7.80 56.7 0 0 325.11 802.63
  C 328.09 802.94 330.13 803.07 331.90 803.63
  Q 340.17 806.27 346.31 806.56
  Q 351.28 806.79 354.37 807.76
  C 357.89 808.86 362.13 808.53 366.61 809.58
  Q 375.12 811.58 383.78 812.40
  Z"
/>
<path fill="#ff8a0a" d="
  M 213.49 595.24
  C 208.77 597.16 205.49 596.10 201.21 593.35
  C 193.36 588.29 192.59 578.24 197.01 570.69
  C 202.85 560.71 220.34 540.55 233.48 551.29
  C 241.14 557.55 239.55 567.76 233.99 574.76
  Q 228.46 581.71 223.59 587.84
  Q 219.72 592.70 213.49 595.24
  Z"
/>
<path fill="#000206" d="
  M 736.02 555.13
  Q 736.36 557.14 734.81 559.18
  A 2.77 2.66 -20.3 0 0 734.39 560.05
  Q 733.25 564.37 731.18 567.85
  Q 730.42 569.13 725.55 579.20
  A 1.25 1.23 83.2 0 1 725.21 579.64
  Q 724.22 580.47 723.28 583.10
  Q 722.51 585.27 719.38 590.17
  Q 717.44 593.20 715.54 596.70
  C 711.77 603.65 708.41 608.32 702.01 617.65
  Q 697.66 623.98 693.79 628.24
  C 690.18 632.20 687.09 637.59 682.75 642.31
  Q 674.30 651.51 668.00 657.71
  Q 663.48 662.17 662.52 663.31
  C 660.12 666.17 657.44 668.01 654.94 670.68
  Q 647.45 678.67 641.93 682.66
  Q 640.19 683.92 637.08 686.56
  Q 631.91 690.96 620.79 699.21
  Q 614.44 703.92 609.00 706.90
  Q 604.44 709.40 596.98 714.32
  C 592.09 717.54 586.82 719.74 582.47 722.85
  A 7.26 7.08 16.3 0 1 580.76 723.76
  C 575.02 725.85 570.13 728.48 564.22 731.44
  Q 563.58 731.76 551.31 737.39
  Q 546.82 739.46 542.21 740.68
  Q 534.44 742.75 532.81 743.13
  Q 530.05 743.77 527.80 744.74
  C 523.31 746.70 518.03 746.77 513.84 748.39
  C 508.18 750.57 503.55 750.97 498.40 752.33
  Q 491.34 754.19 490.81 754.38
  C 487.22 755.65 484.04 755.67 479.87 756.74
  A 4.50 4.29 36.1 0 1 478.89 756.87
  C 473.83 756.97 469.23 757.00 463.76 758.16
  Q 456.32 759.73 450.92 760.49
  C 445.97 761.18 440.12 760.38 434.49 760.76
  C 430.02 761.05 426.59 761.15 422.48 759.60
  Q 433.72 758.72 445.01 758.09
  C 448.89 757.88 454.37 756.82 459.02 756.44
  Q 473.22 755.29 481.76 753.72
  Q 493.04 751.65 512.22 746.32
  Q 522.42 743.49 525.63 742.78
  C 529.68 741.90 537.78 740.30 543.53 738.07
  Q 566.63 729.11 584.66 718.91
  C 593.92 713.67 608.03 705.22 618.75 697.51
  Q 636.19 684.96 649.97 672.73
  Q 653.70 669.42 671.89 650.84
  Q 675.25 647.41 679.54 642.14
  Q 683.43 637.37 686.90 633.20
  Q 716.63 597.46 736.02 555.13
  Z"
/>
<path fill="#ff8a0a" d="
  M 290.69 573.33
  C 297.79 580.78 294.53 591.73 288.30 598.59
  Q 286.80 600.24 278.15 610.14
  Q 259.96 630.97 258.36 632.61
  Q 257.84 633.15 254.10 635.56
  C 247.95 639.51 241.29 639.34 235.81 634.33
  C 229.16 628.25 229.02 618.62 233.91 611.75
  Q 235.83 609.05 244.91 598.94
  C 253.87 588.95 261.52 578.06 272.99 571.70
  C 277.67 569.10 286.52 568.95 290.69 573.33
  Z"
/>
<path fill="#ff8a0a" d="
  M 331.11 637.68
  C 323.89 647.82 316.30 657.90 308.19 666.90
  C 301.91 673.88 291.20 681.71 281.47 677.71
  Q 269.03 672.60 270.61 658.22
  Q 270.86 655.89 272.86 653.12
  C 277.18 647.14 282.89 641.14 287.66 636.55
  Q 290.06 634.24 297.07 625.70
  Q 302.06 619.60 309.43 612.39
  C 314.49 607.43 317.92 606.01 324.54 605.84
  Q 328.87 605.73 332.53 608.78
  C 343.61 618.04 337.69 628.44 331.11 637.68
  Z"
/>
<path fill="#ff8a0a" d="
  M 320.77 695.78
  Q 320.58 693.32 322.78 688.77
  C 325.40 683.32 330.07 678.12 334.11 673.92
  Q 335.31 672.66 340.33 666.51
  Q 345.87 659.70 353.67 652.17
  C 362.43 643.71 375.85 648.87 381.35 658.66
  C 383.59 662.65 380.79 670.17 378.66 674.34
  Q 377.44 676.72 372.41 683.86
  C 366.05 692.86 348.83 716.32 335.47 713.03
  C 327.64 711.10 321.41 704.14 320.77 695.78
  Z"
/>
<path fill="#ff8a0a" d="
  M 403.81 678.71
  C 405.47 679.79 407.04 681.50 409.03 682.88
  Q 426.34 694.89 440.00 705.26
  C 444.23 708.47 446.64 712.58 443.74 717.76
  Q 439.60 725.18 432.62 728.17
  C 424.46 731.67 414.71 725.65 407.86 720.89
  Q 398.13 714.12 388.58 706.13
  A 1.21 1.20 41.3 0 1 388.46 704.38
  Q 398.40 693.65 402.21 679.33
  A 1.06 1.06 0.0 0 1 403.81 678.71
  Z"
/>
<path fill="#000206" d="
  M 398.06 758.79
  Q 388.93 760.50 379.71 758.74
  Q 373.04 757.46 372.88 757.45
  Q 371.33 757.37 365.99 756.52
  C 364.12 756.22 362.99 756.44 361.19 756.63
  A 2.31 2.30 48.8 0 1 360.34 756.57
  L 353.49 754.86
  A 1.71 1.36 -33.0 0 0 353.18 754.83
  Q 348.29 754.91 343.92 753.26
  A 3.47 3.30 55.2 0 0 343.00 753.07
  Q 339.18 752.83 336.62 751.22
  A 3.50 3.45 -25.9 0 0 335.14 750.72
  L 327.30 749.98
  A 0.97 0.77 -24.9 0 1 326.97 749.90
  Q 322.36 747.91 320.24 747.44
  Q 316.09 746.51 314.32 745.88
  Q 309.67 744.21 308.51 743.97
  Q 306.48 743.55 305.92 743.59
  A 1.37 1.31 54.8 0 1 305.21 743.45
  Q 303.48 742.59 285.45 735.05
  Q 281.99 733.60 271.64 727.57
  C 266.85 724.77 261.57 723.15 257.56 720.30
  C 252.06 716.40 245.57 712.93 240.23 708.35
  Q 261.27 721.52 280.89 730.86
  Q 301.08 740.47 326.41 747.53
  Q 328.76 748.19 344.13 751.37
  Q 360.05 754.66 371.53 755.83
  Q 379.20 756.61 383.32 757.26
  C 388.27 758.04 393.10 758.20 398.06 758.79
  Z"
/>
<path fill="#000206" d="
  M 343.54 740.31
  L 338.96 740.27
  L 343.54 740.31
  Z"
/>
<path fill="#000206" d="
  M 427.46 814.38
  L 425.29 814.38
  L 427.46 814.38
  Z"
/>
<path fill="#000206" d="
  M 429.46 814.39
  L 427.96 814.38
  L 429.46 814.39
  Z"
/>
</svg>
