<svg xmlns="http://www.w3.org/2000/svg" width="799" height="610" viewBox="0 0 799 610">
  <path d="M 42 608 L 42 609 L 44 609 Z M 798 338 L 794 337 L 785 338 L 781 340 L 776 345 L 773 344 L 773 339 L 757 339 L 756 338 L 753 339 L 752 341 L 753 342 L 753 406 L 774 406 L 774 370 L 776 364 L 781 359 L 786 357 L 798 357 Z M 724 338 L 720 339 L 714 337 L 705 337 L 696 340 L 692 340 L 691 338 L 690 339 L 691 342 L 683 349 L 678 359 L 676 368 L 676 379 L 678 388 L 683 396 L 683 399 L 685 399 L 697 406 L 701 406 L 703 409 L 704 407 L 706 407 L 707 409 L 708 407 L 717 407 L 728 403 L 736 396 L 741 385 L 722 384 L 721 387 L 716 392 L 707 393 L 702 391 L 697 384 L 696 380 L 697 377 L 702 377 L 703 380 L 704 377 L 727 377 L 728 380 L 729 377 L 742 377 L 742 364 L 739 353 L 736 348 L 729 342 L 726 341 Z M 697 360 L 702 353 L 707 352 L 708 354 L 709 351 L 713 351 L 720 356 L 721 363 L 720 364 L 704 364 L 703 361 L 702 364 L 698 364 Z M 510 338 L 510 340 L 501 348 L 498 355 L 498 358 L 516 360 L 518 359 L 517 356 L 523 351 L 532 351 L 537 355 L 537 358 L 539 359 L 539 363 L 538 364 L 526 364 L 525 365 L 514 366 L 503 371 L 498 376 L 496 381 L 494 382 L 495 383 L 495 390 L 497 397 L 499 399 L 499 402 L 502 402 L 508 406 L 512 407 L 525 407 L 539 401 L 541 403 L 541 406 L 559 406 L 560 408 L 561 406 L 559 405 L 559 399 L 558 398 L 558 390 L 560 389 L 558 388 L 558 382 L 560 381 L 558 380 L 558 371 L 560 370 L 558 369 L 559 348 L 556 349 L 549 342 L 549 339 L 544 340 L 534 337 L 523 337 L 516 339 L 511 339 Z M 539 377 L 539 383 L 537 387 L 530 392 L 526 393 L 519 392 L 516 388 L 517 381 L 523 377 L 531 376 L 532 378 L 533 376 L 538 376 Z M 671 339 L 670 338 L 660 339 L 655 337 L 655 335 L 657 334 L 655 333 L 655 321 L 635 321 L 635 338 L 634 339 L 629 339 L 628 338 L 620 339 L 617 337 L 610 337 L 605 339 L 599 338 L 600 342 L 595 343 L 593 338 L 592 339 L 576 339 L 574 338 L 574 340 L 572 341 L 574 342 L 574 354 L 572 355 L 574 356 L 574 359 L 572 360 L 574 361 L 574 364 L 572 365 L 574 366 L 574 368 L 572 369 L 574 371 L 574 373 L 572 374 L 574 375 L 574 378 L 572 379 L 574 380 L 574 383 L 572 384 L 574 385 L 574 397 L 572 398 L 574 399 L 574 402 L 572 403 L 574 404 L 573 409 L 574 409 L 575 406 L 586 406 L 588 411 L 589 411 L 589 407 L 594 406 L 594 372 L 595 367 L 600 360 L 606 357 L 614 357 L 615 360 L 617 361 L 616 358 L 619 357 L 619 340 L 620 339 L 622 339 L 625 342 L 625 350 L 623 352 L 625 355 L 627 353 L 632 353 L 635 356 L 635 394 L 638 401 L 646 406 L 647 409 L 648 407 L 658 407 L 659 409 L 660 407 L 670 406 L 671 405 L 670 391 L 661 392 L 658 391 L 655 386 L 655 354 L 656 353 L 668 353 L 669 355 L 670 349 L 674 348 L 671 347 Z M 409 317 L 409 406 L 422 406 L 423 408 L 424 406 L 459 406 L 460 407 L 461 405 L 467 404 L 477 398 L 482 393 L 484 383 L 484 376 L 483 375 L 484 370 L 477 363 L 471 360 L 470 357 L 475 354 L 480 347 L 481 334 L 478 327 L 470 320 L 461 317 Z M 430 368 L 431 367 L 452 367 L 459 370 L 463 377 L 461 385 L 458 388 L 452 390 L 431 390 L 430 389 Z M 430 332 L 431 331 L 453 332 L 456 334 L 456 336 L 459 337 L 460 345 L 453 352 L 449 353 L 431 353 L 430 352 Z M 570 217 L 568 216 L 559 216 L 558 214 L 557 216 L 550 217 L 549 215 L 549 218 L 544 221 L 539 227 L 536 226 L 536 217 L 511 217 L 511 300 L 537 300 L 537 253 L 540 247 L 545 242 L 550 240 L 556 240 L 557 242 L 560 239 L 563 239 L 567 242 L 569 240 Z M 587 224 L 587 227 L 582 234 L 580 242 L 596 243 L 597 246 L 598 244 L 603 245 L 604 240 L 610 234 L 613 235 L 614 233 L 623 233 L 628 236 L 628 240 L 631 241 L 632 248 L 625 250 L 618 250 L 616 247 L 616 244 L 616 249 L 615 250 L 610 251 L 609 248 L 609 250 L 606 252 L 601 253 L 596 252 L 596 254 L 592 256 L 590 256 L 588 254 L 588 256 L 585 258 L 585 261 L 581 265 L 578 272 L 578 284 L 582 294 L 584 294 L 587 297 L 587 299 L 594 300 L 596 303 L 597 302 L 607 302 L 608 304 L 609 302 L 613 302 L 614 304 L 616 304 L 620 300 L 622 300 L 628 296 L 630 296 L 632 298 L 632 300 L 656 300 L 656 290 L 655 289 L 655 238 L 651 228 L 644 221 L 644 219 L 638 219 L 630 217 L 627 214 L 626 216 L 617 216 L 616 213 L 615 216 L 608 216 L 604 218 L 600 218 L 590 224 Z M 630 267 L 631 274 L 625 282 L 621 284 L 613 285 L 607 283 L 604 280 L 604 271 L 607 268 L 614 265 L 622 266 L 623 264 L 627 264 Z M 409 193 L 408 194 L 410 195 L 410 211 L 409 212 L 410 213 L 442 213 L 443 214 L 443 299 L 441 300 L 442 303 L 443 300 L 469 300 L 469 214 L 470 213 L 503 213 L 503 191 L 499 192 L 498 194 L 428 194 L 427 191 L 426 194 L 410 194 Z M 751 180 L 750 182 L 730 182 L 729 180 L 728 183 L 730 184 L 730 220 L 729 221 L 726 221 L 722 218 L 715 216 L 707 216 L 706 214 L 705 216 L 701 216 L 688 221 L 681 228 L 677 234 L 676 238 L 671 242 L 673 243 L 672 260 L 670 261 L 672 263 L 672 271 L 673 272 L 673 275 L 671 276 L 671 280 L 675 281 L 678 288 L 685 296 L 685 299 L 689 298 L 695 301 L 702 302 L 703 304 L 704 302 L 712 302 L 713 301 L 717 301 L 718 303 L 718 301 L 728 293 L 730 293 L 731 294 L 731 300 L 752 300 L 752 182 Z M 709 235 L 718 235 L 722 237 L 727 243 L 730 255 L 728 256 L 730 257 L 730 260 L 728 261 L 729 262 L 728 272 L 726 276 L 722 280 L 719 280 L 717 283 L 709 283 L 705 281 L 702 278 L 703 275 L 700 274 L 701 271 L 698 270 L 697 266 L 698 248 L 700 245 L 703 244 L 703 239 L 706 236 Z M 227 180 L 225 183 L 222 182 L 219 185 L 216 186 L 213 185 L 212 187 L 201 192 L 198 191 L 198 193 L 195 196 L 185 202 L 172 214 L 170 214 L 170 216 L 166 220 L 164 220 L 164 223 L 162 225 L 160 225 L 159 229 L 156 228 L 155 230 L 156 235 L 154 237 L 147 252 L 143 264 L 140 279 L 140 285 L 138 286 L 138 290 L 140 291 L 140 297 L 138 298 L 140 299 L 140 310 L 143 324 L 141 325 L 144 326 L 146 335 L 148 338 L 148 341 L 146 342 L 150 343 L 150 348 L 152 348 L 155 352 L 155 359 L 157 359 L 158 361 L 161 362 L 170 374 L 184 387 L 183 390 L 187 389 L 189 391 L 189 394 L 192 394 L 193 396 L 196 395 L 198 397 L 217 406 L 242 412 L 259 412 L 260 414 L 263 414 L 264 412 L 275 412 L 281 410 L 285 410 L 286 412 L 287 409 L 290 409 L 305 404 L 328 391 L 345 376 L 358 360 L 364 350 L 373 329 L 377 310 L 377 299 L 378 298 L 377 280 L 379 279 L 376 278 L 376 274 L 372 258 L 374 257 L 372 257 L 370 255 L 369 250 L 363 238 L 354 224 L 332 202 L 332 200 L 328 200 L 323 196 L 305 187 L 285 181 L 280 181 L 274 179 L 243 179 L 228 182 Z M 268 394 L 268 392 L 272 388 L 277 388 L 278 389 L 277 394 L 272 394 L 271 395 Z M 236 391 L 243 388 L 246 391 L 250 391 L 251 394 L 250 395 L 237 394 Z M 288 388 L 288 390 L 285 392 L 281 393 L 278 392 L 279 388 L 284 388 L 285 387 Z M 249 378 L 252 373 L 256 373 L 266 381 L 266 383 L 262 387 L 257 387 L 249 381 Z M 243 362 L 247 366 L 246 371 L 236 382 L 231 382 L 228 379 L 229 373 L 239 362 Z M 230 349 L 234 353 L 234 356 L 232 360 L 221 372 L 216 372 L 213 369 L 213 364 L 226 350 Z M 219 339 L 221 342 L 220 347 L 208 360 L 204 360 L 201 357 L 202 351 L 211 341 L 214 339 Z M 346 338 L 347 341 L 346 346 L 334 362 L 325 371 L 310 382 L 298 388 L 293 386 L 294 387 L 293 390 L 288 389 L 288 386 L 291 384 L 293 379 L 300 378 L 302 380 L 301 377 L 305 374 L 307 368 L 314 365 L 320 358 L 320 347 L 322 345 L 327 344 L 343 337 Z M 167 337 L 172 336 L 179 339 L 180 341 L 182 341 L 185 350 L 190 356 L 191 355 L 194 356 L 195 362 L 193 363 L 196 363 L 198 365 L 198 368 L 202 367 L 211 378 L 215 380 L 220 380 L 222 382 L 222 387 L 218 388 L 208 383 L 196 374 L 197 371 L 193 372 L 186 365 L 186 363 L 184 363 L 174 351 L 168 341 Z M 346 336 L 349 335 L 350 338 L 347 339 Z M 201 332 L 204 335 L 204 339 L 198 347 L 194 348 L 190 344 L 190 340 L 194 335 Z M 157 287 L 160 286 L 171 291 L 196 298 L 215 297 L 239 287 L 240 290 L 230 298 L 225 304 L 225 311 L 229 316 L 235 319 L 245 319 L 266 311 L 312 348 L 313 355 L 309 359 L 304 359 L 279 339 L 274 337 L 272 339 L 272 342 L 294 359 L 300 365 L 300 368 L 297 371 L 292 371 L 265 350 L 261 350 L 260 355 L 279 369 L 285 375 L 285 377 L 282 380 L 278 381 L 257 366 L 247 357 L 241 356 L 238 347 L 234 344 L 228 343 L 226 337 L 219 332 L 210 333 L 206 328 L 201 326 L 197 326 L 193 328 L 188 333 L 185 333 L 162 324 L 159 319 L 158 309 L 157 308 Z M 231 306 L 255 286 L 267 280 L 275 281 L 310 298 L 329 297 L 346 291 L 357 285 L 361 286 L 361 307 L 358 321 L 355 324 L 350 325 L 317 339 L 310 338 L 268 304 L 263 304 L 251 311 L 243 313 L 234 312 L 231 309 Z M 356 267 L 356 275 L 352 276 L 351 279 L 338 285 L 320 290 L 312 290 L 304 287 L 290 280 L 288 278 L 288 276 L 284 277 L 278 273 L 278 271 L 277 273 L 273 272 L 263 273 L 255 277 L 252 276 L 240 277 L 221 286 L 208 290 L 199 290 L 194 289 L 193 287 L 192 288 L 186 287 L 167 280 L 159 275 L 161 264 L 163 261 L 165 253 L 167 251 L 170 252 L 174 251 L 180 254 L 187 255 L 193 257 L 196 260 L 196 262 L 193 263 L 195 264 L 195 271 L 193 280 L 209 280 L 210 266 L 212 260 L 223 261 L 224 262 L 234 262 L 235 266 L 236 263 L 243 263 L 244 266 L 245 263 L 279 263 L 280 262 L 285 262 L 286 264 L 289 261 L 304 260 L 308 280 L 323 280 L 320 259 L 322 257 L 349 250 L 352 255 L 351 258 L 353 259 L 353 261 L 351 262 L 354 262 Z M 213 208 L 213 215 L 207 225 L 201 242 L 195 242 L 178 236 L 178 233 L 193 218 L 197 218 L 197 216 L 206 209 L 210 207 Z M 300 207 L 305 206 L 315 212 L 318 216 L 322 217 L 327 222 L 328 227 L 329 225 L 331 225 L 336 231 L 336 236 L 334 238 L 328 240 L 316 242 L 309 224 L 301 211 Z M 213 206 L 216 205 L 217 208 L 214 209 Z M 266 199 L 270 200 L 271 203 L 276 204 L 279 211 L 282 211 L 287 217 L 286 221 L 288 221 L 289 224 L 293 227 L 297 238 L 299 240 L 299 244 L 297 246 L 272 247 L 271 248 L 266 248 L 265 247 L 265 200 Z M 250 199 L 251 200 L 251 247 L 246 248 L 245 247 L 219 246 L 217 244 L 217 240 L 219 237 L 220 232 L 225 224 L 225 222 L 232 212 L 242 202 L 247 199 Z" fill="#0B2E59" fill-rule="evenodd"/>
  <path d="M 253 372 L 249 380 L 257 386 L 262 386 L 265 383 L 265 381 Z M 243 363 L 239 363 L 230 373 L 229 379 L 233 382 L 236 381 L 243 374 L 246 369 L 246 366 Z M 230 350 L 226 351 L 214 364 L 214 369 L 216 371 L 221 371 L 231 360 L 233 356 L 233 353 Z M 219 340 L 214 340 L 211 342 L 203 351 L 202 357 L 204 359 L 208 359 L 220 345 Z M 201 333 L 194 336 L 191 340 L 191 344 L 194 347 L 198 346 L 202 341 L 203 335 Z M 158 286 L 158 308 L 159 309 L 160 319 L 162 323 L 187 333 L 193 327 L 197 325 L 201 325 L 206 327 L 211 333 L 215 331 L 219 331 L 227 337 L 229 343 L 234 343 L 239 347 L 241 351 L 241 355 L 247 356 L 257 365 L 278 380 L 282 379 L 284 377 L 284 375 L 259 355 L 259 352 L 261 349 L 265 349 L 294 371 L 299 368 L 299 365 L 271 342 L 271 339 L 274 336 L 279 338 L 304 358 L 309 358 L 312 355 L 312 351 L 309 346 L 266 312 L 245 320 L 235 320 L 229 317 L 224 311 L 225 302 L 245 285 L 218 297 L 211 299 L 191 298 L 171 292 Z M 232 306 L 232 309 L 234 311 L 243 312 L 251 310 L 263 303 L 268 303 L 306 334 L 314 339 L 350 324 L 355 323 L 357 321 L 360 307 L 360 285 L 333 297 L 324 299 L 310 299 L 275 282 L 267 281 L 255 287 Z" fill="#F7941D" fill-rule="evenodd"/>
</svg>