<svg xmlns="http://www.w3.org/2000/svg" width="378" height="608" viewBox="0 0 378 608">
  <path d="M 42 606 L 42 607 L 44 607 Z M 227 178 L 225 181 L 222 180 L 219 183 L 216 184 L 213 183 L 212 185 L 201 190 L 198 189 L 198 191 L 195 194 L 185 200 L 172 212 L 170 212 L 170 214 L 166 218 L 164 218 L 164 221 L 162 223 L 160 223 L 159 227 L 156 226 L 155 228 L 156 233 L 154 235 L 147 250 L 143 262 L 140 277 L 140 283 L 138 284 L 138 288 L 140 289 L 140 295 L 138 296 L 140 297 L 140 308 L 143 322 L 141 323 L 144 324 L 146 333 L 148 336 L 148 339 L 146 340 L 150 341 L 150 346 L 152 346 L 155 350 L 155 357 L 157 357 L 158 359 L 161 360 L 170 372 L 184 385 L 183 388 L 187 387 L 189 389 L 189 392 L 192 392 L 193 394 L 196 393 L 198 395 L 217 404 L 242 410 L 259 410 L 260 412 L 263 412 L 264 410 L 275 410 L 281 408 L 285 408 L 286 410 L 287 407 L 290 407 L 305 402 L 328 389 L 345 374 L 358 358 L 364 348 L 372 330 L 375 320 L 375 316 L 377 315 L 377 272 L 375 271 L 374 263 L 372 256 L 374 255 L 372 255 L 370 253 L 369 248 L 363 236 L 354 222 L 332 200 L 332 198 L 328 198 L 323 194 L 305 185 L 285 179 L 280 179 L 274 177 L 243 177 L 228 180 Z M 268 392 L 268 390 L 272 386 L 277 386 L 278 387 L 277 392 L 272 392 L 271 393 Z M 236 389 L 243 386 L 246 389 L 250 389 L 251 392 L 250 393 L 237 392 Z M 288 386 L 288 388 L 285 390 L 281 391 L 278 390 L 279 386 L 284 386 L 285 385 Z M 249 376 L 252 371 L 256 371 L 266 379 L 266 381 L 262 385 L 257 385 L 249 379 Z M 243 360 L 247 364 L 246 369 L 236 380 L 231 380 L 228 377 L 229 371 L 239 360 Z M 230 347 L 234 351 L 234 354 L 232 358 L 221 370 L 216 370 L 213 367 L 213 362 L 226 348 Z M 219 337 L 221 340 L 220 345 L 208 358 L 204 358 L 201 355 L 202 349 L 211 339 L 214 337 Z M 346 336 L 347 339 L 346 344 L 334 360 L 325 369 L 310 380 L 298 386 L 293 384 L 294 385 L 293 388 L 288 387 L 288 384 L 291 382 L 293 377 L 300 376 L 302 378 L 301 375 L 305 372 L 307 366 L 314 363 L 320 356 L 320 345 L 322 343 L 327 342 L 343 335 Z M 167 335 L 172 334 L 179 337 L 180 339 L 182 339 L 185 348 L 190 354 L 191 353 L 194 354 L 195 360 L 193 361 L 196 361 L 198 363 L 198 366 L 202 365 L 211 376 L 215 378 L 220 378 L 222 380 L 222 385 L 218 386 L 208 381 L 196 372 L 197 369 L 193 370 L 186 363 L 186 361 L 184 361 L 174 349 L 168 339 Z M 346 334 L 349 333 L 350 336 L 347 337 Z M 201 330 L 204 333 L 204 337 L 198 345 L 194 346 L 190 342 L 190 338 L 194 333 Z M 157 285 L 160 284 L 171 289 L 196 296 L 215 295 L 239 285 L 240 288 L 230 296 L 225 302 L 225 309 L 229 314 L 235 317 L 245 317 L 266 309 L 312 346 L 313 353 L 309 357 L 304 357 L 279 337 L 274 335 L 272 337 L 272 340 L 294 357 L 300 363 L 300 366 L 297 369 L 292 369 L 265 348 L 261 348 L 260 353 L 279 367 L 285 373 L 285 375 L 282 378 L 278 379 L 257 364 L 247 355 L 241 354 L 238 345 L 234 342 L 228 341 L 226 335 L 219 330 L 210 331 L 206 326 L 201 324 L 197 324 L 193 326 L 188 331 L 185 331 L 162 322 L 159 317 L 158 307 L 157 306 Z M 231 304 L 255 284 L 267 278 L 275 279 L 310 296 L 329 295 L 346 289 L 357 283 L 361 284 L 361 305 L 358 319 L 355 322 L 350 323 L 317 337 L 310 336 L 268 302 L 263 302 L 251 309 L 243 311 L 234 310 L 231 307 Z M 356 265 L 356 273 L 352 274 L 351 277 L 338 283 L 320 288 L 312 288 L 304 285 L 290 278 L 288 276 L 288 274 L 284 275 L 278 271 L 278 269 L 277 271 L 273 270 L 263 271 L 255 275 L 252 274 L 240 275 L 221 284 L 208 288 L 199 288 L 194 287 L 193 285 L 192 286 L 186 285 L 167 278 L 159 273 L 161 262 L 163 259 L 165 251 L 167 249 L 170 250 L 174 249 L 180 252 L 187 253 L 193 255 L 196 258 L 196 260 L 193 261 L 195 262 L 195 269 L 193 278 L 209 278 L 210 264 L 212 258 L 223 259 L 224 260 L 234 260 L 235 264 L 236 261 L 243 261 L 244 264 L 245 261 L 279 261 L 280 260 L 285 260 L 286 262 L 289 259 L 304 258 L 308 278 L 323 278 L 320 257 L 322 255 L 349 248 L 352 253 L 351 256 L 353 257 L 353 259 L 351 260 L 354 260 Z M 213 206 L 213 213 L 207 223 L 201 240 L 195 240 L 178 234 L 178 231 L 193 216 L 197 216 L 197 214 L 206 207 L 210 205 Z M 300 205 L 305 204 L 315 210 L 318 214 L 322 215 L 327 220 L 328 225 L 329 223 L 331 223 L 336 229 L 336 234 L 334 236 L 328 238 L 316 240 L 309 222 L 301 209 Z M 213 204 L 216 203 L 217 206 L 214 207 Z M 266 197 L 270 198 L 271 201 L 276 202 L 279 209 L 282 209 L 287 215 L 286 219 L 288 219 L 289 222 L 293 225 L 297 236 L 299 238 L 299 242 L 297 244 L 272 245 L 271 246 L 266 246 L 265 245 L 265 198 Z M 250 197 L 251 198 L 251 245 L 246 246 L 245 245 L 219 244 L 217 242 L 217 238 L 219 235 L 220 230 L 225 222 L 225 220 L 232 210 L 242 200 L 247 197 Z" fill="#0B2E59" fill-rule="evenodd"/>
  <path d="M 253 370 L 249 378 L 257 384 L 262 384 L 265 381 L 265 379 Z M 243 361 L 239 361 L 230 371 L 229 377 L 233 380 L 236 379 L 243 372 L 246 367 L 246 364 Z M 230 348 L 226 349 L 214 362 L 214 367 L 216 369 L 221 369 L 231 358 L 233 354 L 233 351 Z M 219 338 L 214 338 L 211 340 L 203 349 L 202 355 L 204 357 L 208 357 L 220 343 Z M 201 331 L 194 334 L 191 338 L 191 342 L 194 345 L 198 344 L 202 339 L 203 333 Z M 158 284 L 158 306 L 159 307 L 160 317 L 162 321 L 187 331 L 193 325 L 197 323 L 201 323 L 206 325 L 211 331 L 215 329 L 219 329 L 227 335 L 229 341 L 234 341 L 239 345 L 241 349 L 241 353 L 247 354 L 257 363 L 278 378 L 282 377 L 284 375 L 284 373 L 259 353 L 259 350 L 261 347 L 265 347 L 294 369 L 299 366 L 299 363 L 271 340 L 271 337 L 274 334 L 279 336 L 304 356 L 309 356 L 312 353 L 312 349 L 309 344 L 266 310 L 245 318 L 235 318 L 229 315 L 224 309 L 225 300 L 245 283 L 218 295 L 211 297 L 191 296 L 171 290 Z M 232 304 L 232 307 L 234 309 L 243 310 L 251 308 L 263 301 L 268 301 L 306 332 L 314 337 L 350 322 L 355 321 L 357 319 L 360 305 L 360 283 L 333 295 L 324 297 L 310 297 L 275 280 L 267 279 L 255 285 Z" fill="#F7941D" fill-rule="evenodd"/>
</svg>